<svg xmlns="http://www.w3.org/2000/svg" xmlns:xlink="http://www.w3.org/1999/xlink" width="462" height="39" version="1.1"><rect id="backgroundrect" width="100%" height="100%" x="0" y="0" fill="none" stroke="none"/>
    <!-- Generator: sketchtool 52.4 (67378) - http://www.bohemiancoding.com/sketch -->
    <title>14CA2306-0390-43B2-84B6-9827422C6D1C</title>
    <desc>Created with sketchtool.</desc>
    <defs>
        <polygon id="path-1" points="0 0.8141 71.0119 0.8141 71.0119 21.1491 0 21.1491"/>
    </defs>
    
<g class="currentLayer" style=""><title>Layer 1</title><g id="Green_diet_v3" stroke="none" stroke-width="1" fill="none" fill-rule="evenodd">
        <g id="Desktop_1400">
            <g id="car">
                <g id="Group-24">
                    <polygon id="Stroke-1" stroke="#404040" stroke-width="2" stroke-linecap="round" stroke-linejoin="round" points="347.443603515625,0.9998778700828552 338.5935974121094,11.0738525390625 386.15260314941406,11.0738525390625 371.4716033935547,0.9998778700828552 359.5776062011719,0.9998778700828552 "/>
                    <path d="M359.57730000000004,0.9999000000000251 L361.88329999999996,29.154899999999998 " id="Stroke-3" stroke="#404040" stroke-width="2" stroke-linecap="round" stroke-linejoin="round"/>
                    <path d="M350.2707,28.932600000000093 C350.2707,27.253600000000006 348.9097,25.892599999999902 347.2297,25.892599999999902 C345.5497,25.892599999999902 344.1887,27.253600000000006 344.1887,28.932600000000093 C344.1887,30.61259999999993 345.5497,31.973600000000033 347.2297,31.973600000000033 C348.9097,31.973600000000033 350.2707,30.61259999999993 350.2707,28.932600000000093 z" id="Stroke-5" stroke="#404040" stroke-width="2" stroke-linecap="round" stroke-linejoin="round"/>
                    <path d="M387.8195,28.932600000000093 C387.8195,27.253600000000006 386.4585,25.892599999999902 384.7785,25.892599999999902 C383.0985,25.892599999999902 381.7375,27.253600000000006 381.7375,28.932600000000093 C381.7375,30.61259999999993 383.0985,31.973600000000033 384.7785,31.973600000000033 C386.4585,31.973600000000033 387.8195,30.61259999999993 387.8195,28.932600000000093 z" id="Stroke-7" stroke="#404040" stroke-width="2" stroke-linecap="round" stroke-linejoin="round"/>
                    <path d="M376.4865,28.263599999999997 L355.5145,28.108600000000024 C355.5425,28.379599999999982 355.5565,28.654600000000073 355.5565,28.932600000000093 C355.5565,29.332599999999957 355.5185,29.722600000000057 355.4645,30.107600000000048 L376.5695,30.264599999999973 C376.4995,29.829600000000028 376.4525,29.386600000000044 376.4525,28.932600000000093 C376.4525,28.70659999999998 376.4685,28.485599999999977 376.4865,28.263599999999997 " id="Fill-9" fill="#404040"/>
                    <g id="Group-13">
                        <mask id="mask-2" fill="white" transform="translate(0,8.259699821472168) translate(330,0) translate(282,1881) translate(-281,-1880) ">
                            <use xlink:href="#path-1" id="svg_1"/>
                        </mask>
                        <g id="Clip-12"/>
                        <path d="M393.3879,11.171799821472177 L386.3039,10.085799821472165 C386.2539,10.077799821472126 386.2029,10.073799821472221 386.1529,10.073799821472221 L334.7459,10.073799821472221 C332.6809,10.073799821472221 330.9999,11.754799821472261 330.9999,13.819799821472088 L330.9999,25.3577998214721 C330.9999,27.876799821472105 333.0489,29.94179982147216 335.5679,29.95979982147219 L338.9769,29.98479982147228 C338.9329,29.639799821472252 338.9029,29.289799821472116 338.9029,28.932799821472145 C338.9029,28.611799821472232 338.9249,28.296799821472177 338.9599,27.98479982147228 L335.5829,27.95979982147219 C334.1589,27.94879982147222 332.9999,26.781799821472077 332.9999,25.3577998214721 L332.9999,13.819799821472088 C332.9999,12.8577998214721 333.7839,12.073799821472221 334.7459,12.073799821472221 L386.0759,12.073799821472221 L393.0049,13.13279982147219 C397.1299,14.114799821472161 400.01189999999997,17.762799821472072 400.01189999999997,22.00479982147226 L400.01189999999997,24.45979982147219 C400.01189999999997,25.52079982147211 399.5979,26.51579982147223 398.8449,27.262799821472072 C398.0999,28.00279982147208 397.11289999999997,28.408799821472257 396.0639,28.408799821472257 L396.0339,28.408799821472257 L393.0779,28.387799821472072 C393.0899,28.567799821472136 393.1059,28.748799821472176 393.1059,28.932799821472145 C393.1059,29.429799821472216 393.0539,29.912799821472163 392.9699,30.386799821472096 L396.0179,30.408799821472257 L396.0639,30.408799821472257 C397.6449,30.408799821472257 399.1309,29.796799821472177 400.2539,28.682799821472145 C401.3879,27.557799821472145 402.01189999999997,26.057799821472145 402.01189999999997,24.45979982147219 L402.01189999999997,22.00479982147226 C402.01189999999997,16.832799821472236 398.4979,12.384799821472143 393.3879,11.171799821472177 " id="Fill-11" fill="#404040" mask="url(#mask-2)"/>
                    </g>
                    <path d="M347.2297,35.259700000000066 C344.1047,35.259700000000066 341.5097,32.981700000000046 341.0007,29.999700000000075 C340.9407,29.652700000000095 340.9027,29.2967000000001 340.9027,28.932700000000068 C340.9027,28.614700000000084 340.9337,28.305699999999888 340.9787,27.999700000000075 C341.4327,24.95270000000005 344.0577,22.606700000000046 347.2297,22.606700000000046 C350.4337,22.606700000000046 353.0817,25.00070000000005 353.4947,28.092699999999923 C353.5317,28.367700000000013 353.5567,28.647699999999986 353.5567,28.932700000000068 C353.5567,29.328700000000026 353.5157,29.71569999999997 353.4457,30.092699999999923 C352.8987,33.02970000000005 350.3227,35.259700000000066 347.2297,35.259700000000066 M355.5147,28.1087 C355.0997,23.90370000000007 351.5427,20.606700000000046 347.2297,20.606700000000046 C342.9587,20.606700000000046 339.4327,23.838700000000017 338.9597,27.98569999999995 C338.9247,28.2967000000001 338.9027,28.612699999999904 338.9027,28.932700000000068 C338.9027,29.28970000000004 338.9327,29.639699999999948 338.9767,29.98569999999995 C339.4967,34.08069999999998 342.9957,37.259700000000066 347.2297,37.259700000000066 C351.4217,37.259700000000066 354.8897,34.14370000000008 355.4637,30.107700000000023 C355.5187,29.72270000000003 355.5567,29.33269999999993 355.5567,28.932700000000068 C355.5567,28.654700000000048 355.5427,28.379699999999957 355.5147,28.1087 " id="Fill-14" fill="#404040"/>
                    <path d="M384.7785,35.259700000000066 C381.75350000000003,35.259700000000066 379.2185,33.122699999999895 378.59950000000003,30.279700000000048 C378.5055,29.844700000000103 378.4525,29.395700000000033 378.4525,28.932700000000068 C378.4525,28.711700000000064 378.4645,28.49369999999999 378.4865,28.27870000000007 C378.8145,25.096700000000055 381.5105,22.606700000000046 384.7785,22.606700000000046 C388.07849999999996,22.606700000000046 390.7925,25.145700000000033 391.0775,28.37169999999992 C391.0935,28.557700000000068 391.1055,28.742700000000013 391.1055,28.932700000000068 C391.1055,29.428699999999935 391.0425,29.907699999999977 390.9345,30.370699999999943 C390.2805,33.168699999999944 387.7715,35.259700000000066 384.7785,35.259700000000066 M393.07849999999996,28.387699999999995 C392.7955,24.050700000000006 389.1855,20.606700000000046 384.7785,20.606700000000046 C380.4135,20.606700000000046 376.8295,23.98569999999995 376.4865,28.26369999999997 C376.4685,28.48569999999995 376.4525,28.706699999999955 376.4525,28.932700000000068 C376.4525,29.38670000000002 376.4995,29.829700000000003 376.5695,30.264699999999948 C377.2105,34.22370000000001 380.6415,37.259700000000066 384.7785,37.259700000000066 C388.87350000000004,37.259700000000066 392.2795,34.285699999999906 392.9695,30.38670000000002 C393.0535,29.912700000000086 393.1055,29.42969999999991 393.1055,28.932700000000068 C393.1055,28.7487000000001 393.0905,28.568700000000035 393.07849999999996,28.387699999999995 " id="Fill-16" fill="#404040"/>
                    <path d="M351.9328,15.07809999999995 L356.5478,15.07809999999995 " id="Stroke-18" stroke="#404040" stroke-width="2" stroke-linecap="round" stroke-linejoin="round"/>
                    <path d="M366.5061,15.07809999999995 L371.1221,15.07809999999995 " id="Stroke-20" stroke="#404040" stroke-width="2" stroke-linecap="round" stroke-linejoin="round"/>
                    <path d="M332.0002,20.679599999999937 L336.1512,20.679599999999937 L336.1512,28.062599999999975 L336.1512,28.963600000000042 L335.2392,28.963600000000042 C333.4502,28.963600000000042 332.0002,27.513599999999997 332.0002,25.72460000000001 L332.0002,20.679599999999937 z" id="Stroke-22" stroke="#404040" stroke-width="2" stroke-linecap="round" stroke-linejoin="round"/>
                </g>
                <path d="M1,38 L461,38 " id="Path-4" stroke="#FBF5F0" stroke-width="2" stroke-linecap="round" stroke-linejoin="round" fill-rule="nonzero"/>
                <path d="M178,38 L417.999942,38.00034649999998 " id="Path-4" stroke="#404040" stroke-width="2" stroke-linecap="round" stroke-linejoin="round" fill-rule="nonzero"/>
            </g>
        </g>
    </g><path fill="none" fill-opacity="1" stroke="#000000" stroke-opacity="1" stroke-width="1.5" stroke-dasharray="none" stroke-linejoin="miter" stroke-linecap="butt" stroke-dashoffset="" fill-rule="evenodd" opacity="1" marker-start="" marker-mid="" marker-end="" d="M418.33333333333326,38.16666666666666L461.6666666666667,38.16666666666666" id="svg_2"/><path fill="none" fill-opacity="1" stroke="#000000" stroke-opacity="1" stroke-width="1.5" stroke-dasharray="none" stroke-linejoin="miter" stroke-linecap="butt" stroke-dashoffset="" fill-rule="evenodd" opacity="1" marker-start="" marker-mid="" marker-end="" d="M417.6666666666667,38.16666666666666L461.6666666666667,38.16666666666666" id="svg_4"/><path fill="none" fill-opacity="1" stroke="#000000" stroke-opacity="1" stroke-width="1.75" stroke-dasharray="none" stroke-linejoin="miter" stroke-linecap="butt" stroke-dashoffset="" fill-rule="evenodd" opacity="1" marker-start="" marker-mid="" marker-end="" d="M178.39999724626537,37.83333208908637L-0.2666694204012501,38.49999875575304" id="svg_3"/></g></svg>