<svg xmlns="http://www.w3.org/2000/svg" xmlns:xlink="http://www.w3.org/1999/xlink" width="462" height="39" version="1.1" style=""><rect id="backgroundrect" width="100%" height="100%" x="0" y="0" fill="none" stroke="none"/>
    <!-- Generator: sketchtool 52.4 (67378) - http://www.bohemiancoding.com/sketch -->
    <title>14CA2306-0390-43B2-84B6-9827422C6D1C</title>
    <desc>Created with sketchtool.</desc>
    <defs>
        <polygon id="path-1" points="0 0.8141 71.0119 0.8141 71.0119 21.1491 0 21.1491"/>
    </defs>
    
<g class="currentLayer" style=""><title>Layer 1</title><g id="Green_diet_v3" stroke="none" stroke-width="1" fill="none" fill-rule="evenodd" class="">
        <g id="Desktop_1400">
            <g id="car">
                <g id="Group-24">
                    <polygon id="Stroke-1" stroke="#404040" stroke-width="2" stroke-linecap="round" stroke-linejoin="round" points="348.24360352754593,0.9998778104782104 339.3935974240303,11.0738525390625 386.95261842012405,11.0738525390625 372.2716186642647,0.9998778104782104 360.3776062130928,0.9998778104782104 "/>
                    <path d="M360.37730001192097,0.9999000000000251 L362.6833000119209,29.154899999999998 " id="Stroke-3" stroke="#404040" stroke-width="2" stroke-linecap="round" stroke-linejoin="round"/>
                    <path d="M351.0707000119209,28.932600000000093 C351.0707000119209,27.253600000000006 349.7097000119209,25.892599999999902 348.0297000119209,25.892599999999902 C346.3497000119209,25.892599999999902 344.9887000119209,27.253600000000006 344.9887000119209,28.932600000000093 C344.9887000119209,30.61259999999993 346.3497000119209,31.973600000000033 348.0297000119209,31.973600000000033 C349.7097000119209,31.973600000000033 351.0707000119209,30.61259999999993 351.0707000119209,28.932600000000093 z" id="Stroke-5" stroke="#404040" stroke-width="2" stroke-linecap="round" stroke-linejoin="round"/>
                    <path d="M388.61950001192093,28.932600000000093 C388.61950001192093,27.253600000000006 387.25850001192094,25.892599999999902 385.57850001192094,25.892599999999902 C383.89850001192093,25.892599999999902 382.53750001192094,27.253600000000006 382.53750001192094,28.932600000000093 C382.53750001192094,30.61259999999993 383.89850001192093,31.973600000000033 385.57850001192094,31.973600000000033 C387.25850001192094,31.973600000000033 388.61950001192093,30.61259999999993 388.61950001192093,28.932600000000093 z" id="Stroke-7" stroke="#404040" stroke-width="2" stroke-linecap="round" stroke-linejoin="round"/>
                    <path d="M377.2865000119209,28.263599999999997 L356.3145000119209,28.108600000000024 C356.34250001192095,28.379599999999982 356.35650001192096,28.654600000000073 356.35650001192096,28.932600000000093 C356.35650001192096,29.332599999999957 356.31850001192095,29.722600000000057 356.2645000119209,30.107600000000048 L377.36950001192093,30.264599999999973 C377.29950001192094,29.829600000000028 377.2525000119209,29.386600000000044 377.2525000119209,28.932600000000093 C377.2525000119209,28.70659999999998 377.26850001192093,28.485599999999977 377.2865000119209,28.263599999999997 " id="Fill-9" fill="#404040"/>
                    <g id="Group-13">
                        <mask id="mask-2" fill="white" transform="translate(0.800000011920929,0) translate(0,8.259699821472168) translate(330,0) translate(282,1881) translate(-281,-1880) ">
                            <use xlink:href="#path-1" id="svg_1"/>
                        </mask>
                        <g id="Clip-12"/>
                        <path d="M394.18790001192093,11.171799821472177 L387.1039000119209,10.085799821472165 C387.0539000119209,10.077799821472126 387.00290001192093,10.073799821472221 386.9529000119209,10.073799821472221 L335.54590001192093,10.073799821472221 C333.48090001192094,10.073799821472221 331.79990001192095,11.754799821472261 331.79990001192095,13.819799821472088 L331.79990001192095,25.3577998214721 C331.79990001192095,27.876799821472105 333.84890001192093,29.94179982147216 336.36790001192094,29.959799821472192 L339.77690001192093,29.98479982147228 C339.73290001192095,29.639799821472252 339.7029000119209,29.289799821472116 339.7029000119209,28.932799821472145 C339.7029000119209,28.611799821472232 339.7249000119209,28.296799821472177 339.75990001192093,27.98479982147228 L336.3829000119209,27.959799821472192 C334.95890001192095,27.94879982147222 333.79990001192095,26.781799821472077 333.79990001192095,25.3577998214721 L333.79990001192095,13.819799821472088 C333.79990001192095,12.857799821472101 334.58390001192095,12.073799821472221 335.54590001192093,12.073799821472221 L386.8759000119209,12.073799821472221 L393.80490001192095,13.13279982147219 C397.92990001192095,14.114799821472161 400.8119000119209,17.762799821472072 400.8119000119209,22.00479982147226 L400.8119000119209,24.45979982147219 C400.8119000119209,25.52079982147211 400.3979000119209,26.51579982147223 399.6449000119209,27.262799821472072 C398.8999000119209,28.00279982147208 397.9129000119209,28.408799821472257 396.8639000119209,28.408799821472257 L396.83390001192095,28.408799821472257 L393.87790001192093,28.387799821472072 C393.88990001192093,28.567799821472136 393.90590001192095,28.748799821472176 393.90590001192095,28.932799821472145 C393.90590001192095,29.429799821472216 393.8539000119209,29.912799821472163 393.7699000119209,30.386799821472096 L396.8179000119209,30.408799821472257 L396.8639000119209,30.408799821472257 C398.44490001192094,30.408799821472257 399.9309000119209,29.796799821472177 401.0539000119209,28.682799821472145 C402.18790001192093,27.557799821472145 402.8119000119209,26.057799821472145 402.8119000119209,24.45979982147219 L402.8119000119209,22.00479982147226 C402.8119000119209,16.832799821472236 399.29790001192094,12.384799821472143 394.18790001192093,11.171799821472177 " id="Fill-11" fill="#404040" mask="url(#mask-2)"/>
                    </g>
                    <path d="M348.0297000119209,35.259700000000066 C344.9047000119209,35.259700000000066 342.30970001192094,32.981700000000046 341.8007000119209,29.999700000000075 C341.7407000119209,29.652700000000095 341.7027000119209,29.2967000000001 341.7027000119209,28.932700000000068 C341.7027000119209,28.614700000000084 341.7337000119209,28.305699999999888 341.77870001192093,27.999700000000075 C342.23270001192094,24.95270000000005 344.85770001192094,22.606700000000046 348.0297000119209,22.606700000000046 C351.2337000119209,22.606700000000046 353.88170001192094,25.00070000000005 354.29470001192095,28.092699999999923 C354.33170001192093,28.367700000000013 354.3567000119209,28.647699999999986 354.3567000119209,28.932700000000068 C354.3567000119209,29.328700000000026 354.3157000119209,29.71569999999997 354.2457000119209,30.092699999999923 C353.69870001192095,33.02970000000005 351.1227000119209,35.259700000000066 348.0297000119209,35.259700000000066 M356.31470001192093,28.1087 C355.8997000119209,23.90370000000007 352.34270001192095,20.606700000000046 348.0297000119209,20.606700000000046 C343.75870001192095,20.606700000000046 340.23270001192094,23.838700000000017 339.7597000119209,27.98569999999995 C339.7247000119209,28.2967000000001 339.7027000119209,28.612699999999904 339.7027000119209,28.932700000000068 C339.7027000119209,29.28970000000004 339.73270001192094,29.639699999999948 339.7767000119209,29.98569999999995 C340.2967000119209,34.08069999999998 343.7957000119209,37.259700000000066 348.0297000119209,37.259700000000066 C352.2217000119209,37.259700000000066 355.68970001192093,34.14370000000008 356.26370001192095,30.107700000000023 C356.31870001192095,29.72270000000003 356.3567000119209,29.33269999999993 356.3567000119209,28.932700000000068 C356.3567000119209,28.654700000000048 356.34270001192095,28.379699999999957 356.31470001192093,28.1087 " id="Fill-14" fill="#404040"/>
                    <path d="M385.57850001192094,35.259700000000066 C382.55350001192096,35.259700000000066 380.01850001192093,33.122699999999895 379.39950001192096,30.279700000000048 C379.3055000119209,29.844700000000103 379.2525000119209,29.395700000000033 379.2525000119209,28.932700000000068 C379.2525000119209,28.711700000000064 379.2645000119209,28.49369999999999 379.2865000119209,28.27870000000007 C379.61450001192094,25.096700000000055 382.3105000119209,22.606700000000046 385.57850001192094,22.606700000000046 C388.8785000119209,22.606700000000046 391.59250001192095,25.145700000000033 391.8775000119209,28.37169999999992 C391.89350001192093,28.557700000000068 391.90550001192094,28.742700000000013 391.90550001192094,28.932700000000068 C391.90550001192094,29.428699999999935 391.84250001192095,29.907699999999977 391.73450001192094,30.370699999999943 C391.08050001192095,33.168699999999944 388.57150001192093,35.259700000000066 385.57850001192094,35.259700000000066 M393.8785000119209,28.387699999999995 C393.59550001192093,24.050700000000006 389.9855000119209,20.606700000000046 385.57850001192094,20.606700000000046 C381.2135000119209,20.606700000000046 377.6295000119209,23.98569999999995 377.2865000119209,28.26369999999997 C377.26850001192093,28.48569999999995 377.2525000119209,28.706699999999955 377.2525000119209,28.932700000000068 C377.2525000119209,29.38670000000002 377.29950001192094,29.829700000000003 377.36950001192093,30.264699999999948 C378.01050001192095,34.22370000000001 381.44150001192094,37.259700000000066 385.57850001192094,37.259700000000066 C389.67350001192096,37.259700000000066 393.0795000119209,34.285699999999906 393.7695000119209,30.38670000000002 C393.8535000119209,29.912700000000086 393.90550001192094,29.42969999999991 393.90550001192094,28.932700000000068 C393.90550001192094,28.7487000000001 393.89050001192095,28.568700000000035 393.8785000119209,28.387699999999995 " id="Fill-16" fill="#404040"/>
                    <path d="M352.7328000119209,15.07809999999995 L357.3478000119209,15.07809999999995 " id="Stroke-18" stroke="#404040" stroke-width="2" stroke-linecap="round" stroke-linejoin="round"/>
                    <path d="M367.30610001192093,15.07809999999995 L371.9221000119209,15.07809999999995 " id="Stroke-20" stroke="#404040" stroke-width="2" stroke-linecap="round" stroke-linejoin="round"/>
                    <path d="M332.80020001192094,20.679599999999937 L336.95120001192095,20.679599999999937 L336.95120001192095,28.062599999999975 L336.95120001192095,28.963600000000042 L336.0392000119209,28.963600000000042 C334.2502000119209,28.963600000000042 332.80020001192094,27.513599999999997 332.80020001192094,25.72460000000001 L332.80020001192094,20.679599999999937 z" id="Stroke-22" stroke="#404040" stroke-width="2" stroke-linecap="round" stroke-linejoin="round"/>
                </g>
                <path d="M1.800000011920929,38 L461.80000001192093,38 " id="Path-4" stroke="#FBF5F0" stroke-width="2" stroke-linecap="round" stroke-linejoin="round" fill-rule="nonzero"/>
                <path d="M178.80000001192093,38 L418.7999420119209,38.00034649999998 " id="Path-4" stroke="#404040" stroke-width="2" stroke-linecap="round" stroke-linejoin="round" fill-rule="nonzero" transform=""/>
            </g>
        </g>
    </g><path fill="none" fill-opacity="1" stroke="#000000" stroke-opacity="1" stroke-width="1.5" stroke-dasharray="none" stroke-linejoin="miter" stroke-linecap="butt" stroke-dashoffset="" fill-rule="evenodd" opacity="1" marker-start="" marker-mid="" marker-end="" d="M418.33333333333326,38.16666666666666L461.6666666666667,38.16666666666666" id="svg_2"/><path fill="none" fill-opacity="1" stroke="#000000" stroke-opacity="1" stroke-width="1.5" stroke-dasharray="none" stroke-linejoin="miter" stroke-linecap="butt" stroke-dashoffset="" fill-rule="evenodd" opacity="1" marker-start="" marker-mid="" marker-end="" d="M417.6666666666667,38.16666666666666L461.6666666666667,38.16666666666666" id="svg_4"/><path fill="none" fill-opacity="1" stroke="#000000" stroke-opacity="1" stroke-width="1.75" stroke-dasharray="none" stroke-linejoin="miter" stroke-linecap="butt" stroke-dashoffset="" fill-rule="evenodd" opacity="1" marker-start="" marker-mid="" marker-end="" d="M178.39999724626537,37.83333208908637L-0.2666694204012501,38.49999875575304" id="svg_3"/><polyline fill="none" stroke="#000000" stroke-width="1.75" stroke-dashoffset="" fill-rule="evenodd" marker-start="" marker-mid="" marker-end="" id="svg_6" points="392.7999944925308,28.433330850799894 392.7999944925308,28.433330850799894 393.59999449253087,28.433330850799894 393.59999449253087,28.433330850799894 393.59999449253087,28.433330850799894 394.3999944925308,28.433330850799894 394.3999944925308,28.433330850799894 394.3999944925308,28.433330850799894 395.19999449253083,28.433330850799894 395.19999449253083,28.433330850799894 395.19999449253083,28.433330850799894 395.19999449253083,28.433330850799894 395.19999449253083,28.433330850799894 395.19999449253083,28.433330850799894 395.99999449253085,28.433330850799894 395.99999449253085,28.433330850799894 395.99999449253085,28.433330850799894 395.99999449253085,28.433330850799894 395.99999449253085,28.433330850799894 395.99999449253085,28.433330850799894 396.7999944925308,28.433330850799894 396.7999944925308,28.433330850799894 396.7999944925308,28.433330850799894 396.7999944925308,28.433330850799894 396.7999944925308,28.433330850799894 396.7999944925308,28.433330850799894 396.7999944925308,28.433330850799894 397.59999449253087,28.433330850799894 397.59999449253087,28.433330850799894 397.59999449253087,28.433330850799894 397.59999449253087,28.433330850799894 397.59999449253087,28.433330850799894 397.59999449253087,28.433330850799894 397.59999449253087,28.433330850799894 397.59999449253087,28.433330850799894 398.3999944925308,28.433330850799894 398.3999944925308,28.433330850799894 398.3999944925308,28.433330850799894 398.3999944925308,28.433330850799894 398.3999944925308,28.433330850799894 399.19999449253083,28.433330850799894 399.19999449253083,28.433330850799894 399.19999449253083,28.433330850799894 399.99999449253085,28.433330850799894 399.99999449253085,28.433330850799894 399.99999449253085,28.433330850799894 399.99999449253085,28.433330850799894 399.99999449253085,28.433330850799894 399.99999449253085,28.433330850799894 399.99999449253085,28.433330850799894 399.99999449253085,28.433330850799894 399.99999449253085,28.433330850799894 400.7999944925308,28.433330850799894 400.7999944925308,28.433330850799894 400.7999944925308,28.433330850799894 400.7999944925308,28.433330850799894 400.7999944925308,28.433330850799894 400.7999944925308,28.433330850799894 400.7999944925308,28.433330850799894 400.7999944925308,28.433330850799894 400.7999944925308,28.433330850799894 401.59999449253087,28.433330850799894 401.59999449253087,28.433330850799894 401.59999449253087,28.433330850799894 401.59999449253087,28.433330850799894 401.59999449253087,28.433330850799894 401.59999449253087,28.433330850799894 401.59999449253087,28.433330850799894 402.3999944925308,28.433330850799894 402.3999944925308,28.433330850799894 402.3999944925308,28.433330850799894 402.3999944925308,28.433330850799894 402.3999944925308,28.433330850799894 402.3999944925308,28.433330850799894 402.3999944925308,28.433330850799894 402.3999944925308,28.433330850799894 402.3999944925308,28.433330850799894 402.3999944925308,28.433330850799894 402.3999944925308,28.433330850799894 403.19999449253083,28.433330850799894 403.19999449253083,28.433330850799894 403.19999449253083,28.433330850799894 403.19999449253083,28.433330850799894 403.19999449253083,28.433330850799894 403.19999449253083,28.433330850799894 403.19999449253083,28.433330850799894 403.19999449253083,27.633330850799894 403.19999449253083,27.633330850799894 " style="color: rgb(0, 0, 0);"/><polyline fill="none" stroke="#000000" stroke-width="1.75" stroke-dashoffset="" fill-rule="evenodd" marker-start="" marker-mid="" marker-end="" id="svg_7" points="337.06666115919745,28.433330850799894 337.06666115919745,28.433330850799894 337.06666115919745,28.433330850799894 337.06666115919745,28.433330850799894 337.06666115919745,28.433330850799894 337.86666115919746,28.433330850799894 337.86666115919746,28.433330850799894 337.86666115919746,28.433330850799894 337.86666115919746,28.433330850799894 337.86666115919746,28.433330850799894 337.86666115919746,28.433330850799894 337.86666115919746,28.433330850799894 337.86666115919746,28.433330850799894 337.86666115919746,28.433330850799894 337.86666115919746,28.433330850799894 338.6666611591975,28.433330850799894 338.6666611591975,28.433330850799894 338.6666611591975,28.433330850799894 338.6666611591975,28.433330850799894 338.6666611591975,28.433330850799894 338.6666611591975,28.433330850799894 338.6666611591975,28.433330850799894 338.6666611591975,28.433330850799894 338.6666611591975,28.433330850799894 338.6666611591975,28.433330850799894 339.46666115919743,28.433330850799894 339.46666115919743,28.433330850799894 339.46666115919743,28.433330850799894 339.46666115919743,28.433330850799894 339.46666115919743,28.433330850799894 " style="color: rgb(0, 0, 0);"/><path fill="none" fill-opacity="1" stroke="#000000" stroke-opacity="1" stroke-width="1.75" stroke-dasharray="none" stroke-linejoin="miter" stroke-linecap="butt" stroke-dashoffset="" fill-rule="evenodd" opacity="1" marker-start="" marker-mid="" marker-end="" d="M331.99999449253085,22.566664184133217L331.99999449253085,10.566664184133217" id="svg_8"/><path fill="none" fill-opacity="1" stroke="#000000" stroke-opacity="1" stroke-width="1.75" stroke-dasharray="none" stroke-linejoin="miter" stroke-linecap="butt" stroke-dashoffset="" fill-rule="evenodd" opacity="1" marker-start="" marker-mid="" marker-end="" d="M338.9333278258641,11.099997517466548L331.7333278258641,11.099997517466548" id="svg_9"/><path fill="none" fill-opacity="1" stroke="#000000" stroke-opacity="1" stroke-width="1.75" stroke-dasharray="none" stroke-linejoin="miter" stroke-linecap="butt" stroke-dashoffset="" fill-rule="evenodd" opacity="1" marker-start="" marker-mid="" marker-end="" d="M385.86666115919746,11.366661108533577L397.0666611591975,11.366661108533577" id="svg_14"/><path fill="none" fill-opacity="1" stroke="#000000" stroke-opacity="1" stroke-width="1.75" stroke-dasharray="none" stroke-linejoin="miter" stroke-linecap="butt" stroke-dashoffset="" fill-rule="evenodd" opacity="1" marker-start="" marker-mid="" marker-end="" d="M397.0666611591975,11.366661108533577L407.4666611591975,28.16666110853356" id="svg_16" class=""/><path fill="none" fill-opacity="1" stroke="#000000" stroke-opacity="1" stroke-width="1.75" stroke-dasharray="none" stroke-linejoin="miter" stroke-linecap="butt" stroke-dashoffset="" fill-rule="evenodd" opacity="1" marker-start="" marker-mid="" marker-end="" d="M403.99999449253085,28.433330850799894L407.99999449253085,28.433330850799894" id="svg_18"/><polyline fill="none" stroke="#000000" stroke-width="1.75" stroke-dashoffset="" fill-rule="evenodd" marker-start="" marker-mid="" marker-end="" id="svg_20" points="397,11.899999618530273 397,11.899999618530273 397,11.899999618530273 397,11.899999618530273 397,11.899999618530273 397,11.899999618530273 397,11.100000381469727 397,11.100000381469727 397,11.100000381469727 397,11.100000381469727 397,11.100000381469727 397,11.100000381469727 397,11.100000381469727 397,11.100000381469727 397,11.100000381469727 397,11.100000381469727 397,11.100000381469727 397,11.100000381469727 397,11.100000381469727 397,11.100000381469727 397,11.100000381469727 397,11.100000381469727 397,11.100000381469727 397,11.100000381469727 " style="color: rgb(0, 0, 0);" class=""/></g></svg>