<svg xmlns="http://www.w3.org/2000/svg" xmlns:xlink="http://www.w3.org/1999/xlink" width="464" height="50" version="1.1" style=""><rect id="backgroundrect" width="100%" height="100%" x="0" y="0" fill="none" stroke="none"/>
    <!-- Generator: sketchtool 52.4 (67378) - http://www.bohemiancoding.com/sketch -->
    <title>29DF32FD-6F57-498D-9855-101F3B0474A9</title>
    <desc>Created with sketchtool.</desc>
    
<g class="currentLayer" style=""><title>Layer 1</title><g id="Green_diet_v3" stroke="none" stroke-width="1" fill="none" fill-rule="evenodd" class="">
        <g id="Desktop_1400" fill-rule="nonzero">
            <g id="house">
                <path d="M2,48 L462,48 " id="Path-4" stroke="#FBF5F0" stroke-width="2.5" stroke-linecap="round" stroke-linejoin="round"/>
                <g id="svg_1">
                    <polygon id="Rectangle-path" stroke="#404040" stroke-width="2" stroke-linejoin="round" points="63,1 67,1 67,5 63,5 "/>
                    <path d="M25,20 L25,42 L46.000026400000024,42 L46.000026400000024,25.50008159999993 L57.999973600000004,25.50008159999993 L57.999973600000004,42 L79,42 L79,20 L52,20 L25,20 zM41.49998679999999,28.250068000000056 L41.49998679999999,29.625115699999924 L41.49998679999999,35.125088400000095 L41.49998679999999,36.00013609999996 C41.49998679999999,36.27627839999991 41.276129200000014,36.50013609999996 40.99998679999999,36.50013609999996 L39.999933999999996,36.50013609999996 L32.49990764,36.50013609999996 L31.499973609999984,36.50013609999996 C31.22383123999998,36.50013609999996 30.999973609999984,36.27627839999991 30.999973609999984,36.00013609999996 L30.999973609999984,35.125088400000095 L30.999973609999984,29.625115699999924 L30.999973609999984,28.250068000000056 L30.999973609999984,25.50008159999993 L30.999973609999984,24.625033999999914 C30.999973609999984,24.348891600000115 31.22383123999998,24.125033999999914 31.499973609999984,24.125033999999914 L32.500026390000016,24.125033999999914 L40.00005279999999,24.125033999999914 L41.00010559999998,24.125033999999914 C41.27624789999999,24.125033999999914 41.50010559999998,24.348891600000115 41.50010559999998,24.625033999999914 L41.50010559999998,25.50008159999993 L41.49998679999999,28.250068000000056 zM62.50001320000001,35.125088400000095 L62.50001320000001,29.625115699999924 L62.50001320000001,28.250068000000056 L62.50001320000001,25.50008159999993 L62.50001320000001,24.625033999999914 C62.50001320000001,24.348891600000115 62.723870799999986,24.125033999999914 63.00001320000001,24.125033999999914 L64.000066,24.125033999999914 L71.5000924,24.125033999999914 L72.5001451,24.125033999999914 C72.7762875,24.125033999999914 73.0001451,24.348891600000115 73.0001451,24.625033999999914 L73.0001451,25.50008159999993 L73.0001451,28.250068000000056 L73.0001451,29.625115699999924 L73.0001451,35.125088400000095 L73.0001451,36.00013609999996 C73.0001451,36.27627839999991 72.7762875,36.50013609999996 72.5001451,36.50013609999996 L71.5000924,36.50013609999996 L64.000066,36.50013609999996 L63.00001320000001,36.50013609999996 C62.723870799999986,36.50013609999996 62.50001320000001,36.27627839999991 62.50001320000001,36.00013609999996 z" id="Shape" stroke="#404040" stroke-width="2"/>
                    <polygon id="Shape" stroke="#404040" stroke-width="2" stroke-linecap="round" stroke-linejoin="round" points="72.49998474121094,5 66.50003051757812,5 61.99998474121094,5 51.5,5 30.5,5 23,20 24.50006103515625,20 51.5,20 78.49995422363281,20 80,20 "/>
                    <polygon id="Shape" points="31,37 37,37 31,31 "/>
                    <polygon id="Shape" points="37.600067138671875,37 39,37 39,31 32,31 "/>
                    <polygon id="Rectangle-path" points="32,27 39,27 39,30 32,30 "/>
                    <polygon id="Shape" points="71,37 71,31 64,31 69.59996032714844,37 "/>
                    <polygon id="Rectangle-path" points="64,27 71,27 71,30 64,30 "/>
                </g>
                <polyline id="Path-9" stroke="#3A3939" stroke-width="2" stroke-linecap="round" stroke-linejoin="round" points="79,38 79,48 94.83462524414062,48 462,48 "/>
                <polyline id="Path-4" stroke="#404040" stroke-width="2" stroke-linecap="round" points="2,48 7,48 21.515625,48 25,48 25,41 "/>
            </g>
        </g>
    </g><path fill="none" fill-opacity="1" stroke="#000000" stroke-opacity="1" stroke-width="1" stroke-dasharray="none" stroke-linejoin="miter" stroke-linecap="butt" stroke-dashoffset="" fill-rule="evenodd" opacity="1" marker-start="" marker-mid="" marker-end="" d="M27.333333333333314,47.66666666666666L78.66666666666663,47.66666666666666" id="svg_2"/><path fill="none" fill-opacity="1" stroke="#000000" stroke-opacity="1" stroke-width="1" stroke-dasharray="none" stroke-linejoin="miter" stroke-linecap="butt" stroke-dashoffset="" fill-rule="evenodd" opacity="1" marker-start="" marker-mid="" marker-end="" d="M27.333333333333314,47.66666666666666L25.333333333333314,47.66666666666666" id="svg_4"/><path fill="none" fill-opacity="1" stroke="#000000" stroke-opacity="1" stroke-width="1.5" stroke-dasharray="none" stroke-linejoin="miter" stroke-linecap="butt" stroke-dashoffset="" fill-rule="evenodd" opacity="1" marker-start="" marker-mid="" marker-end="" d="M78,47.66666666666666L25.333333333333314,47.66666666666666" id="svg_3"/><path fill="none" fill-opacity="1" stroke="#000000" stroke-opacity="1" stroke-width="1.5" stroke-dasharray="none" stroke-linejoin="miter" stroke-linecap="butt" stroke-dashoffset="" fill-rule="evenodd" opacity="1" marker-start="" marker-mid="" marker-end="" d="M26,48.333333333333286L78.66666666666663,48.333333333333286" id="svg_7"/></g></svg>