<svg xmlns="http://www.w3.org/2000/svg" xmlns:xlink="http://www.w3.org/1999/xlink" width="100" height="100" viewBox="0 0 100 100"><g><g transform="translate(50 50) scale(0.69 0.69) rotate(0) translate(-50 -50)" style="fill:#000000"><svg fill="#000000" version="1.1" xmlns="http://www.w3.org/2000/svg" xmlns:xlink="http://www.w3.org/1999/xlink" x="0px" y="0px" viewBox="0 0 100 64.122" enable-background="new 0 0 100 64.122" xml:space="preserve"><g><path fill="#000000" d="M66.442,25.271c0,0-0.613,1.909-0.71,2.164c-0.097,0.256-0.687,1.047-0.559,1.047
		c0.126,0,1.43,0.604,1.43,0.604l5.062,1.572l-0.073,2.385c-0.444,0.065-2.192,1.223-2.447,1.795
		c-0.165,0.374-0.536,1.041-0.892,1.503c4.61,1.859,7.308,4.581,7.417,7.628c0.075,0.543,2.872,10.526,3.032,12.773H100
		c0.018-0.093-0.642-13.007-0.648-13.104c0,0-1.223-3.11-3.16-3.426c-1.94-0.318-4.429-0.995-5.47-1.781
		c-0.608-0.462-2.591-1.264-3.51-1.598c-0.428-0.154-1.162-1.422-1.415-1.995c-0.253-0.571-2.003-1.729-2.447-1.793l-0.072-2.386
		l5.061-1.572c0,0,1.305-0.604,1.431-0.604c0.128,0-0.604-0.959-0.698-1.215c-0.096-0.254-0.572-1.993-0.572-1.993
		s1.709,2.088,2.574,2.479c0,0-1.701-3.195-2.207-4.973c-0.51-1.781-0.844-4.562-0.844-4.815c0-0.256-1.05-7.723-1.621-8.962
		c-0.572-1.24-1.348-2.924-2.677-3.751c-1.329-0.826-3.298-2.002-6.127-2.161c-0.041-0.001-0.083-0.001-0.126-0.005
		c-0.042,0.004-0.084,0.004-0.128,0.005c-2.828,0.158-4.797,1.334-6.126,2.161c-1.326,0.827-2.104,2.511-2.676,3.751
		c-0.573,1.239-1.622,8.706-1.622,8.962c0,0.253-0.296,3.148-0.804,4.926c-0.508,1.781-2.245,4.862-2.245,4.862
		C64.737,27.36,66.442,25.271,66.442,25.271z"></path></g><g><path fill="#000000" d="M22.398,45.956v-0.131l0.014-0.128c1.378-5.949,8.546-8.791,12.459-10.496c0.006-0.003-0.006,0.001,0,0
		c-2.375-1.086-3.629-1.896-4.216-2.028c-0.24-0.482-0.755-4.117-0.755-4.117s2.855-2.522,3.496-7.354c0,0,1.406,0.778,1.494-2.162
		c0.065-2.265,0.456-3.15-1.085-3.812c0,0,0.111-1.567,0.16-2.958c0.077-2.062,0.457-4.956-3.111-7.283
		C30.347,5.156,27.73,3.7,27.713,3.708c-0.933-0.566-2.118-0.927-2.118-0.927l0.038,0.85c-0.064-0.062-0.128-0.129-0.187-0.187
		c-0.235-0.243-0.368-1.18-0.345-1.551c0.046-0.659,0.046-0.659,0.046-0.659c-1.69,1.261-2.856,2.89-2.856,2.89l0.151-1.576
		c0,0-0.313,0.483-4.18,2.897c-3.793,2.368-3.165,5.863-3.061,7.932c0.07,1.391,0.208,2.35,0.208,2.35
		c-1.54,0.662-0.733,1.607-0.694,3.872c0.05,3.133,1.629,2.581,1.629,2.581c0.727,4.268,2.969,6.875,2.969,6.875
		s-0.634,3.656-0.878,4.119c-0.699,0.157-2.313,1.271-5.7,2.681c-4.991,2.077-3.424,0.872-7.486,2.902
		c-6.42,3.21-5.147,16.6-5.147,16.6h20.226L22.398,45.956z"></path></g><g><path fill="#000000" d="M77.525,64.122c0-3.817-4.31-19.96-4.31-19.96c0-2.359-3.103-5.054-9.22-6.624
		c-3.175-0.814-5.837-2.639-5.837-2.639c-0.393-0.223-0.333-2.284-0.333-2.284l-1.97-0.297c0-0.168-0.167-2.639-0.167-2.639
		c2.356-0.786,2.113-5.425,2.113-5.425c1.496,0.824,2.47-2.843,2.47-2.843c1.771-5.099-0.881-4.792-0.881-4.792
		c0.842-3.816,0-9.392,0-9.392C58.212-3.102,40.466-0.298,42.57,3.076c-5.186-0.954-4.003,10.773-4.003,10.773l1.125,3.032
		c-2.209,1.421-0.674,3.144-0.599,5.126C39.201,24.932,41,24.326,41,24.326c0.112,4.828,2.506,5.462,2.506,5.462
		c0.45,3.032,0.17,2.516,0.17,2.516l-2.133,0.256c0.095,0.766-0.168,2.056-0.168,2.056c-2.513,1.11-3.048,1.762-5.54,2.845
		c-4.815,2.096-10.049,4.822-10.978,8.492c-0.93,3.671-3.691,18.166-3.691,18.166h56.358V64.122z"></path></g></svg></g></g></svg>