<?xml version="1.0" encoding="utf-8"?>
<!-- Generator: Adobe Illustrator 23.0.1, SVG Export Plug-In . SVG Version: 6.00 Build 0)  -->
<svg version="1.1" xmlns="http://www.w3.org/2000/svg" xmlns:xlink="http://www.w3.org/1999/xlink" x="0px" y="0px"
	 viewBox="0 0 792 612" style="enable-background:new 0 0 792 612;" xml:space="preserve">
<style type="text/css">
	.st0{fill:none;stroke:#000000;stroke-miterlimit:10;}
	.st1{fill:#80B641;}
	.st2{fill:#A2CD3A;}
	.st3{fill:#ABD038;}
	.st4{fill:#B2D235;}
	.st5{fill:#C5D92D;}
	.st6{fill-rule:evenodd;clip-rule:evenodd;fill:#70AE43;}
	.st7{fill:#70AE43;}
	.st8{fill-rule:evenodd;clip-rule:evenodd;fill:#ABD038;}
	.st9{fill-rule:evenodd;clip-rule:evenodd;fill:#B2D235;}
	.st10{fill-rule:evenodd;clip-rule:evenodd;fill:#80B641;}
	.st11{fill:#6B4B35;}
</style>
<g id="Layer_1">
	<g>
		<path class="st1" d="M261.98,324.59c-0.13-2.91-0.74-5.45-1.85-7.6c-1.11-2.15-2.61-3.96-4.51-5.42c-1.9-1.46-4.16-2.55-6.79-3.28
			c-2.63-0.73-5.5-1.09-8.6-1.09c-1.9,0-3.94,0.22-6.13,0.67c-2.19,0.44-4.21,1.22-6.08,2.33c-1.87,1.11-3.41,2.6-4.61,4.46
			c-1.2,1.87-1.81,4.2-1.81,6.98c0,2.72,0.67,4.94,2,6.65s3.07,3.09,5.23,4.13c2.15,1.04,4.62,1.88,7.41,2.52
			c2.79,0.63,5.61,1.24,8.46,1.81c2.91,0.57,5.75,1.25,8.5,2.04c2.76,0.79,5.22,1.87,7.41,3.23c2.19,1.36,3.94,3.14,5.27,5.32
			c1.33,2.18,1.99,4.92,1.99,8.22c0,3.55-0.76,6.52-2.28,8.93c-1.52,2.41-3.44,4.37-5.75,5.89c-2.31,1.52-4.88,2.61-7.7,3.28
			c-2.82,0.67-5.53,1-8.12,1c-3.99,0-7.73-0.43-11.21-1.28c-3.48-0.85-6.52-2.25-9.12-4.18c-2.6-1.93-4.64-4.42-6.13-7.46
			c-1.49-3.04-2.2-6.74-2.14-11.11h4.18c-0.19,3.74,0.35,6.89,1.62,9.45c1.27,2.56,3.02,4.67,5.27,6.32
			c2.25,1.65,4.89,2.83,7.93,3.56c3.04,0.73,6.24,1.09,9.59,1.09c2.03,0,4.19-0.25,6.51-0.76c2.31-0.51,4.43-1.36,6.36-2.56
			c1.93-1.2,3.55-2.79,4.85-4.75c1.3-1.96,1.95-4.43,1.95-7.41c0-2.85-0.67-5.18-2-6.98c-1.33-1.81-3.09-3.26-5.27-4.37
			c-2.19-1.11-4.65-2-7.41-2.66c-2.75-0.67-5.59-1.28-8.5-1.85c-2.85-0.57-5.67-1.23-8.46-1.99c-2.79-0.76-5.26-1.79-7.41-3.09
			c-2.15-1.3-3.9-2.98-5.23-5.03c-1.33-2.06-1.99-4.7-1.99-7.93s0.68-6,2.04-8.31c1.36-2.31,3.13-4.18,5.32-5.6s4.64-2.47,7.36-3.13
			c2.72-0.67,5.42-1,8.08-1c3.55,0,6.85,0.4,9.93,1.19c3.07,0.79,5.76,2.03,8.07,3.7c2.31,1.68,4.16,3.85,5.56,6.51
			s2.19,5.86,2.38,9.59H261.98z"/>
		<path class="st1" d="M273.19,324.21h3.61v9.98h0.19c0.38-1.52,1.04-2.96,2-4.32c0.95-1.36,2.1-2.55,3.47-3.56
			c1.36-1.01,2.88-1.8,4.56-2.38c1.68-0.57,3.43-0.85,5.27-0.85c2.34,0,4.37,0.3,6.08,0.9c1.71,0.6,3.17,1.39,4.37,2.38
			c1.2,0.98,2.15,2.09,2.85,3.32c0.7,1.24,1.17,2.49,1.43,3.75h0.19c1.46-3.42,3.4-6,5.84-7.74c2.44-1.74,5.65-2.61,9.64-2.61
			c2.22,0,4.26,0.33,6.13,1s3.48,1.68,4.85,3.04c1.36,1.36,2.42,3.09,3.18,5.18c0.76,2.09,1.14,4.56,1.14,7.41v33.35h-3.61V339.6
			c0-3.1-0.47-5.54-1.42-7.31c-0.95-1.77-2.08-3.12-3.37-4.04c-1.3-0.92-2.6-1.49-3.9-1.71c-1.3-0.22-2.3-0.33-2.99-0.33
			c-2.22,0-4.26,0.38-6.13,1.14c-1.87,0.76-3.48,1.9-4.84,3.42c-1.36,1.52-2.42,3.41-3.18,5.65c-0.76,2.25-1.14,4.83-1.14,7.74
			v28.88h-3.61V339.6c0-3.04-0.46-5.46-1.38-7.27c-0.92-1.81-2-3.15-3.23-4.04c-1.24-0.89-2.5-1.46-3.8-1.71
			c-1.3-0.25-2.33-0.38-3.09-0.38c-1.71,0-3.48,0.35-5.32,1.04c-1.84,0.7-3.52,1.77-5.04,3.23c-1.52,1.46-2.75,3.33-3.71,5.6
			c-0.95,2.28-1.42,4.97-1.42,8.08v28.88h-3.61V324.21z"/>
		<path class="st1" d="M377.3,363.35h-0.19c-0.57,1.46-1.39,2.83-2.47,4.13c-1.08,1.3-2.39,2.46-3.94,3.47
			c-1.55,1.01-3.31,1.8-5.27,2.38c-1.96,0.57-4.12,0.85-6.46,0.85c-5.19,0-9.21-1.13-12.06-3.37c-2.85-2.25-4.28-5.71-4.28-10.4
			c0-2.85,0.57-5.18,1.71-6.98c1.14-1.8,2.58-3.23,4.32-4.27c1.74-1.04,3.67-1.79,5.79-2.23c2.12-0.44,4.16-0.76,6.13-0.95l5.6-0.47
			c2.6-0.19,4.64-0.49,6.13-0.9c1.49-0.41,2.61-0.98,3.37-1.71c0.76-0.73,1.24-1.66,1.43-2.8c0.19-1.14,0.28-2.56,0.28-4.28
			c0-1.33-0.25-2.56-0.76-3.7c-0.51-1.14-1.3-2.15-2.38-3.04c-1.08-0.89-2.47-1.58-4.18-2.09c-1.71-0.51-3.8-0.76-6.27-0.76
			c-4.37,0-7.9,1.08-10.59,3.23c-2.69,2.15-4.17,5.42-4.42,9.79h-3.61c0.25-5.38,1.98-9.42,5.18-12.11
			c3.2-2.69,7.74-4.04,13.63-4.04s10.18,1.16,12.87,3.47c2.69,2.31,4.04,5.34,4.04,9.07v28.41c0,0.7,0.01,1.39,0.05,2.09
			c0.03,0.7,0.14,1.33,0.33,1.9c0.19,0.57,0.51,1.03,0.95,1.38c0.44,0.35,1.08,0.52,1.9,0.52c0.63,0,1.52-0.1,2.66-0.29v3.04
			c-0.95,0.25-1.93,0.38-2.95,0.38c-1.46,0-2.61-0.19-3.47-0.57c-0.86-0.38-1.51-0.89-1.95-1.52c-0.44-0.63-0.75-1.38-0.9-2.23
			c-0.16-0.86-0.24-1.79-0.24-2.8V363.35z M377.3,345.3c-0.89,1.08-2.23,1.81-4.04,2.19c-1.81,0.38-3.82,0.67-6.03,0.85l-6.08,0.57
			c-1.77,0.19-3.55,0.46-5.32,0.81c-1.77,0.35-3.37,0.94-4.8,1.76c-1.42,0.82-2.58,1.95-3.47,3.37c-0.89,1.42-1.33,3.28-1.33,5.56
			c0,3.61,1.14,6.29,3.42,8.03c2.28,1.74,5.42,2.61,9.4,2.61c4.12,0,7.38-0.74,9.79-2.23c2.41-1.49,4.24-3.2,5.51-5.13
			c1.27-1.93,2.07-3.8,2.42-5.6c0.35-1.81,0.52-3.02,0.52-3.66V345.3z"/>
		<path class="st1" d="M396.02,335.04h0.29c0.44-1.58,1.25-3.07,2.42-4.46c1.17-1.39,2.6-2.6,4.27-3.61
			c1.68-1.01,3.55-1.79,5.61-2.33c2.06-0.54,4.19-0.77,6.41-0.71v3.61c-1.9-0.25-4.07-0.06-6.51,0.57
			c-2.44,0.63-4.77,2.03-6.98,4.18c-0.89,0.95-1.66,1.87-2.33,2.75c-0.67,0.89-1.22,1.87-1.66,2.94c-0.44,1.08-0.79,2.28-1.04,3.61
			c-0.25,1.33-0.41,2.91-0.48,4.75v26.69h-3.61v-48.83h3.61V335.04z"/>
		<path class="st1" d="M443.04,327.35H432.4v34.1c0,1.96,0.22,3.51,0.67,4.65c0.44,1.14,1.12,2.01,2.04,2.61
			c0.92,0.6,2.03,0.97,3.33,1.09c1.3,0.13,2.8,0.16,4.51,0.1v3.13c-1.84,0.13-3.63,0.11-5.37-0.05c-1.74-0.16-3.28-0.63-4.61-1.43
			c-1.33-0.79-2.39-1.98-3.18-3.56c-0.79-1.58-1.12-3.77-1-6.55v-34.1h-9.03v-3.14h9.03v-15.2h3.61v15.2h10.64V327.35z"/>
		<path class="st11" d="M450.36,305.21h5.98l26.5,63.18h0.19l26.22-63.18h5.99v67.83h-4.18v-62.7h-0.19l-25.84,62.7h-4.18
			l-26.12-62.7h-0.19v62.7h-4.18V305.21z"/>
		<path class="st11" d="M524.08,349.1v0.57c0,2.85,0.38,5.57,1.14,8.17c0.76,2.6,1.89,4.88,3.38,6.84c1.49,1.96,3.36,3.51,5.62,4.65
			c2.25,1.14,4.87,1.71,7.86,1.71c4.89,0,8.76-1.28,11.62-3.85c2.86-2.57,4.83-6.13,5.91-10.69h3.61
			c-1.08,5.7-3.41,10.07-6.98,13.11c-3.58,3.04-8.31,4.56-14.2,4.56c-3.61,0-6.76-0.65-9.45-1.95c-2.69-1.3-4.94-3.07-6.75-5.32
			c-1.8-2.25-3.15-4.91-4.04-7.98c-0.89-3.07-1.33-6.38-1.33-9.93c0-3.42,0.46-6.7,1.38-9.83c0.92-3.13,2.29-5.89,4.13-8.26
			c1.84-2.38,4.13-4.28,6.89-5.7s6-2.14,9.74-2.14c3.42,0,6.44,0.63,9.07,1.9c2.63,1.27,4.83,2.99,6.6,5.18
			c1.77,2.19,3.12,4.72,4.04,7.6c0.92,2.88,1.38,5.97,1.38,9.26c0,0.32-0.02,0.68-0.05,1.09c-0.03,0.41-0.05,0.75-0.05,1H524.08z
			 M559.99,345.97c-0.13-2.66-0.57-5.18-1.33-7.55c-0.76-2.38-1.89-4.46-3.38-6.27c-1.49-1.81-3.3-3.25-5.43-4.32
			c-2.13-1.08-4.56-1.61-7.29-1.61c-2.92,0-5.49,0.56-7.72,1.66c-2.22,1.11-4.1,2.56-5.62,4.37c-1.52,1.81-2.7,3.91-3.52,6.32
			c-0.83,2.41-1.33,4.88-1.52,7.41H559.99z"/>
		<path class="st11" d="M602.55,363.35h-0.19c-0.57,1.46-1.39,2.83-2.47,4.13c-1.08,1.3-2.39,2.46-3.94,3.47
			c-1.55,1.01-3.31,1.8-5.27,2.38c-1.96,0.57-4.12,0.85-6.46,0.85c-5.19,0-9.21-1.13-12.06-3.37c-2.85-2.25-4.28-5.71-4.28-10.4
			c0-2.85,0.57-5.18,1.71-6.98c1.14-1.8,2.58-3.23,4.32-4.27c1.74-1.04,3.67-1.79,5.79-2.23c2.12-0.44,4.16-0.76,6.13-0.95l5.6-0.47
			c2.6-0.19,4.64-0.49,6.13-0.9c1.49-0.41,2.61-0.98,3.37-1.71c0.76-0.73,1.24-1.66,1.43-2.8c0.19-1.14,0.28-2.56,0.28-4.28
			c0-1.33-0.25-2.56-0.76-3.7c-0.51-1.14-1.3-2.15-2.38-3.04c-1.08-0.89-2.47-1.58-4.18-2.09c-1.71-0.51-3.8-0.76-6.27-0.76
			c-4.37,0-7.9,1.08-10.59,3.23c-2.69,2.15-4.17,5.42-4.42,9.79h-3.61c0.25-5.38,1.98-9.42,5.18-12.11
			c3.2-2.69,7.74-4.04,13.63-4.04s10.18,1.16,12.87,3.47c2.69,2.31,4.04,5.34,4.04,9.07v28.41c0,0.7,0.01,1.39,0.05,2.09
			c0.03,0.7,0.14,1.33,0.33,1.9c0.19,0.57,0.51,1.03,0.95,1.38c0.44,0.35,1.08,0.52,1.9,0.52c0.63,0,1.52-0.1,2.66-0.29v3.04
			c-0.95,0.25-1.93,0.38-2.95,0.38c-1.46,0-2.61-0.19-3.47-0.57c-0.86-0.38-1.51-0.89-1.95-1.52c-0.44-0.63-0.75-1.38-0.9-2.23
			c-0.16-0.86-0.24-1.79-0.24-2.8V363.35z M602.55,345.3c-0.89,1.08-2.23,1.81-4.04,2.19c-1.81,0.38-3.82,0.67-6.03,0.85l-6.08,0.57
			c-1.77,0.19-3.55,0.46-5.32,0.81c-1.77,0.35-3.37,0.94-4.8,1.76c-1.42,0.82-2.58,1.95-3.47,3.37c-0.89,1.42-1.33,3.28-1.33,5.56
			c0,3.61,1.14,6.29,3.42,8.03c2.28,1.74,5.42,2.61,9.4,2.61c4.12,0,7.38-0.74,9.79-2.23c2.41-1.49,4.24-3.2,5.51-5.13
			c1.27-1.93,2.07-3.8,2.42-5.6c0.35-1.81,0.52-3.02,0.52-3.66V345.3z"/>
		<path class="st11" d="M633.71,327.35h-10.64v34.1c0,1.96,0.22,3.51,0.67,4.65c0.44,1.14,1.12,2.01,2.04,2.61
			c0.92,0.6,2.03,0.97,3.33,1.09c1.3,0.13,2.8,0.16,4.51,0.1v3.13c-1.84,0.13-3.63,0.11-5.37-0.05c-1.74-0.16-3.28-0.63-4.61-1.43
			c-1.33-0.79-2.39-1.98-3.18-3.56c-0.79-1.58-1.12-3.77-1-6.55v-34.1h-9.03v-3.14h9.03v-15.2h3.61v15.2h10.64V327.35z"/>
	</g>
	<g>
		<g>
			<path class="st2" d="M212.85,252.1c-15.85,4.31-25.59,17.48-28.4,21.12l-0.39,0.5l0.37,0.19c4.05,2.1,20.7,10.09,34.69,8.03
				c16.71-2.44,19.31-19.31,19.49-20.47l-0.03,0C238.58,261.45,228.48,247.84,212.85,252.1z"/>
			<path class="st1" d="M241.65,256.85c-4.93-2.53-21.79-7.96-29.01-5.76c-13.54,4.12-25.37,18.5-28.18,22.13l-0.19,0.24
				c0,0,0,0-0.01,0l-0.19,0.26l0.02,0.01l-0.01,0l0.09,0.05l0.02,0l0.25,0.13c4.05,2.1,20.7,10.09,34.69,8.03
				c16.71-2.44,23.4-17.79,28.19-22.2C247.31,259.73,241.67,256.99,241.65,256.85z M211.45,252.93c12.63-3.84,20.95,3.99,24.3,8.08
				l-51.18,12.59c-0.04-0.02-0.07-0.03-0.11-0.05C188.61,268.49,199.33,256.63,211.45,252.93z M217.32,280.68
				c-12.26,1.79-26.54-4.12-32.62-7.01l51.49-10.7C234.78,268.14,230.32,278.77,217.32,280.68z"/>
		</g>
		<g>
			<path class="st2" d="M194.67,313.2c-2.28-7.53-9.09-12.13-10.97-13.45l-0.26-0.18l-0.1,0.17c-1.07,1.93-5.11,9.87-4,16.52
				c1.32,7.94,10.01,9.13,10.61,9.21l0-0.01C189.96,325.46,196.92,320.62,194.67,313.2z"/>
			<path class="st1" d="M192.34,326.9c1.28-2.35,4.01-10.38,2.85-13.81c-2.17-6.43-9.61-12.02-11.49-13.34l-0.13-0.09c0,0,0,0,0,0
				l-0.13-0.09l-0.01,0.01l0,0l-0.03,0.04l0,0.01l-0.06,0.12c-1.07,1.93-5.11,9.87-4,16.52c1.32,7.94,9.24,11.08,11.53,13.35
				C190.88,329.6,192.27,326.91,192.34,326.9z M194.24,312.53c2.02,6-1.97,9.97-4.06,11.58l-6.68-24.31
				c0.01-0.02,0.02-0.03,0.03-0.05C186.15,301.71,192.29,306.78,194.24,312.53z M179.99,315.4c-0.97-5.82,2.02-12.63,3.48-15.53
				l5.7,24.46C186.51,323.67,181.02,321.57,179.99,315.4z"/>
		</g>
		<g>
			<path class="st3" d="M176.97,402.9c-1,2.39-1.29,4.52-0.82,6.16c0.39,1.43,1.33,2.39,2.65,2.72c1.31,0.33,2.8-0.03,4.2-1.01
				c1.61-1.13,2.98-2.98,3.98-5.37c1.83-4.4,0.57-9.98,0.14-11.58l-0.01-0.04l0,0c-0.06-0.22-0.16-0.63-0.52-0.72
				c-0.32-0.08-0.66,0.13-0.97,0.35l-0.05,0.03C184.03,394.55,178.8,398.52,176.97,402.9z"/>
			<path class="st3" d="M170.32,389.98c-2.47,0.8-4.27,1.96-5.21,3.38c-0.83,1.23-0.95,2.57-0.34,3.78c0.6,1.21,1.85,2.11,3.51,2.53
				c1.9,0.49,4.21,0.33,6.67-0.47c4.54-1.47,7.95-6.06,8.88-7.43l0.02-0.03l0,0c0.13-0.19,0.37-0.53,0.21-0.86
				c-0.15-0.3-0.53-0.42-0.89-0.51l-0.06-0.01C181.25,389.9,174.84,388.51,170.32,389.98z"/>
		</g>
		<g>
			<path class="st3" d="M126.96,345.56c0-1.02,0-2.04,0-3.06c0.2-0.31,0.48-0.43,0.85-0.41c0.56,0.03,1.13,0.01,1.69,0.01
				c0.44,0,0.87,0,1.33,0c0-0.26,0-0.46,0-0.66c0-10.96,0-21.93,0-32.89c0-1.67,1.1-3.16,2.7-3.66c0.18-0.06,0.35-0.11,0.52-0.17
				c5.59,0,11.17,0,16.76,0c0.05,0.03,0.09,0.06,0.14,0.07c1.91,0.46,3.09,1.94,3.09,3.88c0,10.95,0,21.9,0,32.85
				c0,0.18,0,0.37,0,0.53c0.08,0.02,0.1,0.04,0.13,0.04c1.01,0,2.01,0,3.02,0.01c0.48,0,0.71,0.23,0.72,0.71
				c0.01,0.76,0,1.53,0,2.29c0,0.67-0.18,0.86-0.86,0.86c-9.74,0-19.49,0-29.23,0.01C127.44,345.97,127.16,345.87,126.96,345.56z
				 M142.41,321.47c2.31,0,4.62,0,6.93,0c0.55,0,0.83-0.24,0.83-0.75c0-3.36,0-6.71,0-10.07c0-0.54-0.25-0.78-0.8-0.78
				c-4.61,0-9.21,0-13.82,0c-0.61,0-0.85,0.24-0.85,0.85c0,3.29,0,6.58,0,9.87c0,0.65,0.23,0.88,0.86,0.88
				C137.84,321.47,140.12,321.47,142.41,321.47z"/>
			<path class="st1" d="M164.33,318.91c-1.13-0.09-1.88-0.67-2.26-1.66c-0.48-1.26-0.53-2.51,0.45-3.65
				c-0.75-1.03-1.5-2.07-2.26-3.11c-0.27-0.37-0.54-0.73-0.8-1.11c-0.45-0.64-0.33-1.42,0.27-1.85c0.58-0.42,1.36-0.3,1.81,0.32
				c1.72,2.35,3.43,4.7,5.13,7.07c0.15,0.21,0.24,0.52,0.24,0.78c0.01,5.22,0.02,10.44,0,15.66c-0.01,2.25-2.04,4.26-4.3,4.29
				c-2.41,0.04-4.23-1.43-4.66-3.8c-0.09-0.52-0.06-1.07-0.06-1.6c-0.01-1.15,0-2.31,0-3.46c0-0.91-0.53-1.44-1.46-1.44
				c-0.36,0-0.72,0-1.1,0c0-0.86,0-1.69,0-2.52c2.45-0.4,4.59,0.63,5.09,3.19c0.1,0.53,0.04,1.1,0.05,1.65c0,1.15-0.01,2.31,0,3.46
				c0.01,1.1,0.88,1.96,1.94,1.95c1.04-0.01,1.92-0.86,1.92-1.94c0.01-4,0-8,0-12C164.34,319.07,164.33,319.01,164.33,318.91z"/>
		</g>
		<g>
			<path class="st3" d="M145.08,281.03c0.87,0.84,1.75,1.68,2.62,2.52c0.08-0.05,0.15-0.1,0.23-0.15c-0.08-0.47-0.15-0.93-0.24-1.45
				c1.38,0.17,2.68,0.33,3.89,0.48c0.39,1.55,0.77,3.05,1.15,4.55c0.16,0,0.32,0.01,0.48,0.01c0.33-1.69,0.65-3.38,1.01-5.25
				c0.05-0.01,0.37-0.07,0.74-0.14c0.15,0.44,0.28,0.82,0.48,1.4c0.26-0.72,0.45-1.25,0.66-1.81c0.83,0.47,1.64,0.94,2.53,1.45
				c-0.22,0.26-0.43,0.5-0.64,0.75c-1.83,2.07-2.98,4.44-3.17,7.22c-0.12,1.8-0.25,3.6-0.17,5.39c0.1,2.19-0.03,4.63,2.91,5.32
				c-3.08,0.17-6.16,0.34-9.23,0.51c-0.04-0.11-0.08-0.22-0.12-0.32c2.69-1.59,2.13-4.42,2.68-6.81c0.2-0.89,0.17-1.83,0.34-2.73
				c0.39-2.03-0.3-3.7-1.67-5.13c-0.82-0.86-1.73-1.63-2.53-2.51c-0.84-0.92-1.6-1.92-2.39-2.89
				C144.8,281.29,144.94,281.16,145.08,281.03z"/>
			<path class="st1" d="M147.05,258.72c1.01,0.43,2.02,0.88,3.04,1.26c0.26,0.1,0.59-0.01,0.89-0.01c2.29-0.02,4.6-0.18,6.87-0.01
				c2.21,0.16,3.83,1.58,5.36,3.09c0.47,0.46,1.19,0.69,1.83,0.95c0.42,0.17,0.9,0.16,1.34,0.27c3.44,0.85,5.03,2.54,4.88,6.07
				c-0.1,2.45,0.3,4.75,0.69,7.11c0.14,0.88,0.04,1.85-0.17,2.72c-0.41,1.75-1.8,2.74-3.77,2.71c-0.83-0.01-1.4,0.22-2,0.81
				c-2.28,2.21-4.43,2.5-7.35,0.49c-1.7-1.17-3.08-1.32-4.96-0.64c-2.75,1-5.6,0.73-8.33-0.28c-0.82-0.3-1.49-0.3-2.28,0.05
				c-0.65,0.29-1.38,0.44-2.09,0.59c-2.49,0.52-4.07-0.33-4.95-2.72c-0.22-0.59-0.44-0.94-1.13-1.06c-2.62-0.45-3.6-2.01-3.02-4.66
				c0.08-0.37,0.15-0.78,0.36-1.08c1.02-1.47,0.82-2.99,0.53-4.66c-0.69-3.9,0.71-5.6,4.62-5.95c0.23-0.02,0.46-0.05,0.74-0.08
				c0.09-0.23,0.21-0.47,0.27-0.71c0.57-2.39,2.19-3.65,4.46-4.25C144.29,258.72,145.67,258.72,147.05,258.72z"/>
		</g>
		<g>
			<path class="st3" d="M194.66,365.04c0,0.44-0.11,0.99-0.3,1.52c-0.1,0.28-0.06,0.38,0.22,0.49c2.29,0.95,3.7,2.64,4.12,5.1
				c0.58,3.3-1.66,6.61-4.95,7.34c-0.32,0.07-0.4,0.14-0.34,0.49c0.6,3.45-2.21,6.52-5.7,6.24c-1.1-0.09-2.1-0.48-2.91-1.23
				c-0.27-0.25-0.4-0.19-0.65,0.01c-2.71,2.31-6.74,1.27-7.94-2.05c-0.21-0.58-0.33-1.19-0.29-1.81c0.01-0.22-0.07-0.33-0.26-0.42
				c-1.58-0.81-2.52-2.61-2.24-4.28c0.33-1.98,1.66-3.39,3.47-3.67c1.84-0.29,3.69,0.61,4.52,2.21c0.02,0.04,0.04,0.08,0.06,0.12
				c0.21,0.35,0.12,0.87,0.4,1.1c0.26,0.22,0.73,0.2,1.08,0.36c0.34,0.16,0.66,0.34,0.96,0.57c0.15,0.12,0.25,0.16,0.42-0.01
				c0.49-0.51,1.07-0.91,1.74-1.15c0.24-0.09,0.26-0.17,0.17-0.4c-0.5-1.35-0.6-2.73-0.22-4.13c0.06-0.23-0.03-0.27-0.19-0.33
				c-2.3-0.72-3.8-2.26-4.57-4.52c-0.09-0.28-0.23-0.24-0.43-0.2c-2.99,0.57-5.76-1.84-5.52-4.87c0.15-1.9,1.11-3.32,2.94-3.97
				c1.86-0.66,3.56-0.26,4.97,1.15c0.24,0.24,0.36,0.23,0.61,0.05c4.39-3.06,10.37-0.23,10.83,5.11
				C194.69,364.2,194.69,364.56,194.66,365.04z"/>
			<path class="st1" d="M169.92,367.31c-2.22-0.14-4.44-0.28-6.66-0.42c-0.49-0.03-0.71-0.22-0.76-0.64
				c-0.04-0.37,0.24-0.74,0.64-0.86c0.17-0.05,0.34-0.02,0.51-0.01c4.32,0.27,8.65,0.55,12.97,0.82c0.11,0.01,0.23,0.01,0.34,0.03
				c0.44,0.08,0.78,0.47,0.73,0.82c-0.05,0.4-0.44,0.71-0.9,0.69c-0.72-0.03-1.43-0.09-2.15-0.13
				C173.07,367.51,171.49,367.41,169.92,367.31C169.92,367.31,169.92,367.31,169.92,367.31z"/>
			<path class="st1" d="M166.22,371.74c-1.72-0.11-3.43-0.22-5.15-0.33c-0.48-0.03-0.73-0.21-0.77-0.62
				c-0.05-0.4,0.23-0.79,0.65-0.88c0.12-0.03,0.26-0.03,0.38-0.02c3.45,0.24,6.89,0.48,10.34,0.72c0.51,0.04,0.87,0.37,0.85,0.78
				c-0.02,0.45-0.4,0.75-0.94,0.72c-1.79-0.11-3.58-0.23-5.37-0.34C166.22,371.76,166.22,371.75,166.22,371.74z"/>
			<path class="st1" d="M167.65,376.5c-1.31-0.08-2.63-0.17-3.94-0.25c-0.4-0.02-0.54-0.29-0.6-0.61c-0.07-0.33,0.18-0.72,0.51-0.86
				c0.18-0.07,0.36-0.07,0.55-0.06c2.46,0.16,4.92,0.31,7.38,0.47c0.06,0,0.11,0,0.17,0.01c0.51,0.06,0.87,0.41,0.84,0.81
				c-0.03,0.43-0.43,0.74-0.96,0.71c-1.32-0.08-2.63-0.17-3.95-0.25C167.65,376.49,167.65,376.5,167.65,376.5z"/>
			<path class="st1" d="M175.91,370.72c0.21,0.01,0.43,0.02,0.64,0.04c0.47,0.05,0.8,0.39,0.79,0.8c-0.01,0.36-0.34,0.69-0.78,0.72
				c-0.56,0.04-1.11-0.04-1.67-0.04c-0.36,0-0.54-0.34-0.56-0.71c-0.01-0.38,0.32-0.76,0.71-0.79c0.28-0.02,0.57-0.01,0.86-0.01
				C175.91,370.73,175.91,370.72,175.91,370.72z"/>
		</g>
		<g>
			<path class="st3" d="M108.9,272.11c-0.98,0.55-1.94,0.97-2.95,1.21c-4.76,1.12-8.89-0.04-12.26-3.57
				c-4.58-4.79-4.31-12.67,0.49-17.26c0.92-0.88,1.98-1.53,3.01-2.26c0.25-0.18,0.35-0.07,0.48,0.13c1.73,2.67,3.46,5.33,5.19,8
				c1.67,2.58,3.34,5.16,5.01,7.74c0.81,1.26,1.63,2.52,2.43,3.79c0.15,0.24,0.28,0.35,0.58,0.23c0.36-0.13,0.75-0.09,1.2-0.06
				c-0.41-0.83-0.81-1.61-1.04-2.45c-1.34-4.79-0.37-9.05,3.2-12.53c4.88-4.77,12.44-4.69,17.29,0.03c0.98,0.96,1.7,2.11,2.47,3.24
				c0.13,0.19,0.1,0.31-0.09,0.41c-0.12,0.07-0.23,0.15-0.35,0.23c-6.17,4.15-12.34,8.31-18.53,12.43
				c-0.65,0.44-1.12,0.84-0.82,1.71c0.5-0.22,1.02-0.47,1.56-0.69c4.73-1.88,10.2-0.61,13.64,3.15c4.42,4.83,4.27,12.42-0.34,17.06
				c-0.96,0.96-2.09,1.68-3.2,2.43c-0.2,0.14-0.33,0.14-0.45-0.09c-0.06-0.11-0.13-0.2-0.2-0.31c-4.16-6.19-8.33-12.37-12.46-18.57
				c-0.44-0.65-0.85-1.11-1.72-0.79c0.31,0.63,0.64,1.3,0.89,2c1.62,4.59,0.27,9.96-3.34,13.2c-4.91,4.41-12.33,4.26-17.02-0.33
				c-0.98-0.96-1.69-2.12-2.47-3.24c-0.19-0.28-0.02-0.35,0.16-0.47c2.69-1.75,5.39-3.5,8.08-5.25c2.65-1.72,5.3-3.43,7.96-5.15
				c1.14-0.74,2.29-1.47,3.44-2.2c0.25-0.16,0.38-0.3,0.25-0.62C108.83,272.95,108.89,272.57,108.9,272.11z"/>
		</g>
		<g>
			<path class="st1" d="M150.29,407.77c-2.52,0-5.04,0-7.56,0c-1.5,0-1.56-0.05-2.41,1.07c-0.51,0.67-1.03,1.31-1.63,1.88
				c-0.26,0.24-0.17,0.68-0.53,0.84c-0.04,0.02-0.1,0.1-0.1,0.1c-0.07-0.05-0.17-0.11-0.18-0.17c-0.02-0.3-0.01-0.6-0.01-0.91
				c0-3.12,0.02-6.25-0.01-9.37c-0.01-0.81,0.17-1.5,0.61-2.17c0.52-0.78,1.15-1.39,1.95-1.91c0.66-0.43,1.29-0.63,2.04-0.58
				c0.35,0.02,0.71,0.04,1.06,0c0.43-0.05,0.71-0.27,0.72-0.75c0.01-1.42,0.74-2.44,1.92-3.1c1.14-0.63,2.32-1.02,3.69-0.41
				c1.34,0.59,1.73,0.76,2.56,2.06c0.11,0.18,0,0.58,0.37,0.19c0.21-0.22,0.47-0.4,0.63-0.65c0.58-0.9,1.51-0.77,2.29-0.62
				c0.65,0.13,1.33,0.45,1.6,1.28c0.1,0.31,0.26,0.59,0.27,0.94c0.02,1.04,0.03,1.03,1.14,1.06c1.8,0.05,3.03,1.01,4.01,2.46
				c0.84,1.24,1.13,2.61,0.86,4.01c-0.27,1.39-0.88,2.63-2.12,3.54c-1.2,0.87-2.44,1.23-3.9,1.2
				C155.13,407.73,152.71,407.77,150.29,407.77z"/>
			<path class="st3" d="M175.36,411.76l-7.77,8.4c-0.23,0.24-0.63,0.08-0.63-0.25v-8.33c0-0.33-0.41-0.49-0.64-0.24l-8.04,8.91
				c-0.22,0.25-0.64,0.09-0.64-0.24v-8.43c0-0.33-0.41-0.49-0.64-0.24l-8,8.85c-0.22,0.25-0.64,0.09-0.64-0.24V411
				c0-0.2-0.16-0.36-0.36-0.36h-3.01c-0.2,0-0.36,0.16-0.36,0.36v9.87c0,0.2-0.16,0.36-0.36,0.36h-2.36c-0.2,0-0.36-0.16-0.36-0.36
				v-6.64c0-0.2-0.16-0.36-0.36-0.36h-2.46c-0.2,0-0.36,0.16-0.36,0.36v6.62c0,0.2-0.16,0.36-0.36,0.36h-4.09
				c-0.2,0-0.36,0.16-0.36,0.36v18.42c0,0.2,0.16,0.36,0.36,0.36h41.72c0.2,0,0.36-0.16,0.36-0.36v-27.98
				C175.99,411.67,175.59,411.52,175.36,411.76z M142.9,436.77c0,0.37-0.3,0.67-0.67,0.67h-3.08c-0.37,0-0.67-0.3-0.67-0.67v-3.08
				c0-0.37,0.3-0.67,0.67-0.67h3.08c0.37,0,0.67,0.3,0.67,0.67V436.77z M142.9,430.74c0,0.37-0.3,0.67-0.67,0.67h-3.08
				c-0.37,0-0.67-0.3-0.67-0.67v-3.08c0-0.37,0.3-0.67,0.67-0.67h3.08c0.37,0,0.67,0.3,0.67,0.67V430.74z M149.08,436.77
				c0,0.37-0.3,0.67-0.67,0.67h-3.08c-0.37,0-0.67-0.3-0.67-0.67v-3.08c0-0.37,0.3-0.67,0.67-0.67h3.08c0.37,0,0.67,0.3,0.67,0.67
				V436.77z M149.08,430.74c0,0.37-0.3,0.67-0.67,0.67h-3.08c-0.37,0-0.67-0.3-0.67-0.67v-3.08c0-0.37,0.3-0.67,0.67-0.67h3.08
				c0.37,0,0.67,0.3,0.67,0.67V430.74z M155.25,436.77c0,0.37-0.3,0.67-0.67,0.67h-3.08c-0.37,0-0.67-0.3-0.67-0.67v-3.08
				c0-0.37,0.3-0.67,0.67-0.67h3.08c0.37,0,0.67,0.3,0.67,0.67V436.77z M155.25,430.74c0,0.37-0.3,0.67-0.67,0.67h-3.08
				c-0.37,0-0.67-0.3-0.67-0.67v-3.08c0-0.37,0.3-0.67,0.67-0.67h3.08c0.37,0,0.67,0.3,0.67,0.67V430.74z M161.43,436.77
				c0,0.37-0.3,0.67-0.67,0.67h-3.08c-0.37,0-0.67-0.3-0.67-0.67v-3.08c0-0.37,0.3-0.67,0.67-0.67h3.08c0.37,0,0.67,0.3,0.67,0.67
				V436.77z M161.43,430.74c0,0.37-0.3,0.67-0.67,0.67h-3.08c-0.37,0-0.67-0.3-0.67-0.67v-3.08c0-0.37,0.3-0.67,0.67-0.67h3.08
				c0.37,0,0.67,0.3,0.67,0.67V430.74z"/>
		</g>
		<g>
			<path class="st4" d="M204.51,292.29c0.16,0.03,0.48,0.1,2.33,0.51c-0.31,2.9-1.22,5.33-3.55,7.31c-2.44,2.1-5.62,2.77-9.08,2.79
				c3.42,0.51,6.86,0.47,10.03-1.44c3.02-1.79,4.8-4.64,5.73-7.97c1.88,0.41,2.31,0.51,2.32,0.51c-0.07-1.82-1.23-5.05-3.73-7.62
				C208.05,289.05,205.87,291.67,204.51,292.29z"/>
			<path class="st4" d="M196.12,295.54c-0.16-0.04-0.48-0.1-2.33-0.51c0.31-2.9,1.23-5.34,3.55-7.31c2.45-2.1,5.63-2.77,9.09-2.79
				c-3.42-0.51-6.86-0.47-10.03,1.44c-3.02,1.79-4.81,4.64-5.73,7.98c-1.88-0.41-2.31-0.51-2.31-0.51c0.07,1.82,1.23,5.05,3.73,7.62
				C192.59,298.77,194.76,296.16,196.12,295.54z"/>
		</g>
		<g>
			<path class="st4" d="M110.23,339.63c0.07-0.09,0.22-0.26,1.06-1.24c1.65,1.13,2.83,2.46,3.27,4.51c0.48,2.15-0.14,4.29-1.25,6.39
				c1.41-1.9,2.5-3.99,2.37-6.53c-0.11-2.4-1.26-4.4-2.97-6.03c0.85-1.01,1.05-1.23,1.05-1.24c-1.12-0.54-3.45-0.89-5.81-0.2
				C109.42,336.45,110.3,338.61,110.23,339.63z"/>
			<path class="st4" d="M109.49,345.75c-0.07,0.09-0.22,0.26-1.06,1.24c-1.65-1.13-2.83-2.46-3.27-4.5
				c-0.48-2.16,0.14-4.3,1.25-6.39c-1.41,1.9-2.5,3.99-2.37,6.53c0.11,2.4,1.25,4.4,2.97,6.04c-0.85,1.01-1.05,1.23-1.05,1.24
				c1.12,0.54,3.45,0.89,5.81,0.2C110.3,348.93,109.42,346.77,109.49,345.75z"/>
		</g>
		<g>
			<path class="st1" d="M175.76,292.17l0.01,0c0.12-0.03,0.25-0.08,0.31-0.2c0.07-0.14,0.04-0.29,0.01-0.37l0,0l0-0.02
				c-0.16-0.59-0.78-2.59-2-3.28c-0.66-0.38-1.34-0.47-1.95-0.29c-0.53,0.16-0.98,0.52-1.26,1.03c-0.28,0.51-0.36,1.08-0.22,1.61
				c0.16,0.62,0.59,1.14,1.26,1.51C173.14,292.84,175.17,292.34,175.76,292.17z"/>
			<path class="st1" d="M170.97,298.29c0.11-0.03,0.23-0.07,0.29-0.19c0.07-0.13,0.03-0.26,0.01-0.34l-0.01-0.01
				c-0.15-0.55-0.73-2.4-1.86-3.04c-0.61-0.35-1.24-0.44-1.81-0.27c-0.49,0.14-0.9,0.49-1.17,0.96c-0.26,0.47-0.34,1-0.2,1.5
				c0.15,0.57,0.55,1.05,1.17,1.4c1.13,0.63,3.01,0.17,3.56,0.01L170.97,298.29z"/>
			<path class="st1" d="M173.93,307.39c0.1-0.03,0.21-0.07,0.27-0.18c0.07-0.12,0.03-0.25,0.01-0.32l0,0l-0.01-0.01
				c-0.13-0.52-0.68-2.27-1.75-2.88c-0.58-0.33-1.17-0.41-1.7-0.25c-0.46,0.14-0.86,0.46-1.11,0.9c-0.25,0.44-0.32,0.94-0.19,1.41
				c0.14,0.54,0.52,1,1.1,1.32c1.08,0.6,2.85,0.16,3.37,0.01L173.93,307.39z"/>
			<path class="st5" d="M164.12,295.77c0.07-0.02,0.14-0.05,0.19-0.12c0.04-0.08,0.02-0.17,0-0.22l0,0l0-0.01
				c-0.09-0.35-0.46-1.54-1.2-1.95c-0.39-0.22-0.79-0.28-1.16-0.18c-0.31,0.1-0.58,0.31-0.75,0.61c-0.17,0.3-0.22,0.65-0.13,0.96
				c0.09,0.37,0.35,0.67,0.74,0.9c0.73,0.41,1.93,0.11,2.29,0.01L164.12,295.77z"/>
			<path class="st5" d="M173.81,300.05c0.84,0.47,2.23,0.13,2.64,0.01l0.01,0c0.08-0.03,0.17-0.06,0.21-0.14
				c0.06-0.1,0.02-0.2,0.01-0.25l0,0l-0.01-0.01c-0.11-0.41-0.53-1.78-1.37-2.25c-0.45-0.26-0.91-0.32-1.33-0.2
				c-0.36,0.11-0.67,0.36-0.86,0.7c-0.19,0.35-0.24,0.74-0.15,1.11C173.05,299.44,173.36,299.8,173.81,300.05z"/>
			<path class="st5" d="M168.07,303.12c0.09-0.02,0.18-0.06,0.23-0.15c0.05-0.09,0.02-0.2,0-0.26l0,0
				c-0.11-0.43-0.55-1.85-1.43-2.34c-0.47-0.27-0.95-0.34-1.38-0.21c-0.38,0.11-0.7,0.37-0.9,0.73c-0.2,0.36-0.26,0.77-0.16,1.15
				c0.12,0.44,0.42,0.81,0.9,1.07c0.86,0.49,2.31,0.13,2.73,0.01L168.07,303.12z"/>
			<path class="st5" d="M168.05,290.69c0.09-0.03,0.19-0.06,0.24-0.16c0.06-0.1,0.03-0.22,0.01-0.28l0,0l0-0.02
				c-0.12-0.45-0.59-1.98-1.53-2.5c-0.51-0.29-1.02-0.37-1.48-0.23c-0.41,0.12-0.75,0.41-0.96,0.79c-0.22,0.38-0.28,0.82-0.17,1.23
				c0.11,0.47,0.45,0.87,0.96,1.15c0.93,0.52,2.48,0.14,2.93,0.01L168.05,290.69z"/>
		</g>
		<g>
			<path class="st1" d="M158.52,211.32l0.02,0c0.12-0.05,0.24-0.12,0.29-0.25c0.06-0.16,0-0.31-0.05-0.38l0,0l0-0.02
				c-0.25-0.58-1.17-2.55-2.52-3.08c-0.73-0.29-1.44-0.29-2.04-0.02c-0.52,0.24-0.93,0.68-1.14,1.24c-0.21,0.56-0.22,1.15,0,1.68
				c0.25,0.61,0.77,1.08,1.51,1.37C155.93,212.39,157.94,211.58,158.52,211.32z"/>
			<path class="st1" d="M154.49,218.28c0.11-0.04,0.22-0.1,0.27-0.23c0.05-0.14-0.01-0.27-0.04-0.35l-0.01-0.01
				c-0.23-0.54-1.09-2.36-2.34-2.85c-0.68-0.27-1.33-0.28-1.89-0.02c-0.48,0.22-0.85,0.63-1.06,1.15c-0.2,0.52-0.2,1.07,0,1.56
				c0.23,0.56,0.72,1,1.4,1.27c1.25,0.49,3.11-0.26,3.65-0.5L154.49,218.28z"/>
			<path class="st1" d="M158.82,227.18c0.1-0.04,0.2-0.1,0.25-0.22c0.05-0.13,0-0.26-0.03-0.33l0,0l-0.01-0.01
				c-0.21-0.51-1.02-2.23-2.21-2.7c-0.64-0.25-1.26-0.25-1.78-0.01c-0.46,0.21-0.82,0.59-1.01,1.08c-0.19,0.49-0.19,1.01,0.01,1.47
				c0.22,0.53,0.68,0.95,1.32,1.2c1.19,0.46,2.94-0.25,3.45-0.47L158.82,227.18z"/>
			<path class="st5" d="M147.11,216.67c0.07-0.03,0.14-0.07,0.17-0.15c0.03-0.09-0.01-0.18-0.03-0.23l0,0l0-0.01
				c-0.15-0.35-0.7-1.51-1.5-1.83c-0.43-0.17-0.85-0.17-1.21-0.01c-0.31,0.14-0.55,0.4-0.68,0.73c-0.13,0.33-0.13,0.69,0,1.01
				c0.15,0.36,0.46,0.64,0.89,0.81c0.8,0.31,2-0.16,2.34-0.32L147.11,216.67z"/>
			<path class="st5" d="M157.65,219.68c0.93,0.36,2.3-0.19,2.7-0.37l0.01,0c0.08-0.04,0.16-0.08,0.2-0.17c0.05-0.11,0-0.2-0.03-0.26
				l0,0l-0.01-0.01c-0.17-0.41-0.8-1.74-1.73-2.11c-0.5-0.2-0.98-0.2-1.4-0.01c-0.35,0.16-0.63,0.46-0.78,0.84
				c-0.14,0.39-0.14,0.8,0,1.16C156.79,219.16,157.15,219.48,157.65,219.68z"/>
			<path class="st5" d="M152.2,223.64c0.08-0.04,0.17-0.08,0.21-0.18c0.04-0.1-0.01-0.21-0.03-0.27l0,0
				c-0.18-0.43-0.83-1.82-1.8-2.19c-0.52-0.21-1.03-0.21-1.45-0.02c-0.37,0.17-0.66,0.48-0.82,0.88c-0.16,0.4-0.16,0.83,0,1.2
				c0.18,0.43,0.55,0.77,1.08,0.97c0.95,0.38,2.38-0.2,2.8-0.38L152.2,223.64z"/>
			<path class="st5" d="M150.41,210.91c0.08-0.04,0.18-0.09,0.22-0.19c0.05-0.12,0-0.23-0.03-0.29l0,0l0-0.02
				c-0.18-0.44-0.89-1.94-1.93-2.34c-0.57-0.22-1.1-0.23-1.55-0.02c-0.4,0.18-0.71,0.52-0.87,0.95c-0.17,0.42-0.17,0.88,0,1.28
				c0.18,0.47,0.58,0.83,1.15,1.04c1.03,0.4,2.56-0.21,3.01-0.41L150.41,210.91z"/>
		</g>
		<g>
			<g>
				<path class="st3" d="M171.1,243.75c-1.45-8.47-2.01-16.32-0.51-24.2c0.82-4.28,1.27-8.12,3.54-12.39
					c0.33-0.63,0.67-1.25,0.97-1.89c1.63-3.44,3.09-5.81,5.78-6.49c5.15-1.3,8.06-1.12,18.08-0.98c9.34,0.52,16.25,1.9,23.12,7.09
					c2.67,2.02,5,4.47,7.59,6.6c0.82,0.67,1.79,1.13,2.83,1.32c2.86,0.53,5.76,0.8,8.64,1.27c6.65,1.08,10.15,5.2,11.78,11.12
					c0.38,1.37,0.81,2.79,0.82,4.19c0.03,3.42-2.39,5.19-5.64,5.41c-0.31,0.02-0.76-0.47-0.97-0.83c-1.25-2.2-2.8-4.1-5.07-5.29
					c-7.06-3.69-15.33,0.46-16.66,8.34c-0.39,2.31-0.39,2.31-2.73,2.76c-6.25,1.22-12.5,2.4-18.73,3.68
					c-1.15,0.24-1.73,0.07-2.32-1.04c-2.5-4.68-6.94-6.85-12.19-6.13c-4.68,0.64-9.1,5.27-9.34,10.06
					c-0.08,1.51-0.59,2.12-1.98,2.11c-1.25-0.01-2.58,0.19-3.73-0.17C171.94,247.53,171.23,245.43,171.1,243.75z M222.62,215.52
					c-0.47-0.6-0.72-0.95-1.01-1.26c-3.95-4.3-8.91-6.67-14.64-7.44c-3.05-0.41-6.1-0.26-9.07,0.73c-0.67,0.22-1.08,0.9-0.94,1.6
					c0.66,3.17,1.29,6.35,1.85,9.53c0.2,1.15,0.67,1.38,1.78,1.16c6.86-1.38,13.73-2.7,20.59-4.03
					C221.57,215.73,221.95,215.65,222.62,215.52z M191.8,209.31c-2.16,0.42-4.19,0.82-6.22,1.21c-2.18,0.42-3.87,1.65-4.89,3.53
					c-1,1.84-1.74,3.84-2.39,5.83c-0.44,1.33-0.52,2.78-0.76,4.13c0.3,0.1,0.38,0.16,0.45,0.15c5.14-0.98,10.28-1.96,15.41-2.98
					c0.23-0.05,0.56-0.58,0.52-0.82C193.26,216.73,192.55,213.13,191.8,209.31z"/>
				<path class="st3" d="M184.13,249.26c-0.8-4.05,1.81-8.03,5.8-8.83c4.11-0.82,8.1,1.79,8.91,5.84c0.84,4.17-1.72,8.03-5.87,8.85
					C188.78,255.96,184.96,253.43,184.13,249.26z"/>
				<path class="st3" d="M238.08,246.34c-3.94,0.79-7.71-1.75-8.6-5.58c-1.14-4.85,2.4-8.52,5.63-9.13c4.23-0.81,8.18,1.74,9,5.87
					C244.93,241.72,242.37,245.49,238.08,246.34z"/>
			</g>
			<path class="st1" d="M113.22,238.83c-1.66,0.31-3.21,0.77-4.78,0.84c-2.49,0.12-4.81-1.52-5.38-3.51
				c-0.65-2.29,0.46-4.88,2.79-6.17c1.54-0.86,12.72-14.89,23.18-13.46c4.74-0.42,9.13,0.76,12.75,4.01
				c3.59,3.21,4.79,7.26,3.85,11.96c-0.07,0.34-0.11,0.69-0.18,1.19c4.61,0.69,8.28,2.61,9.71,7.13c1.72-0.73,3.33-1.68,5.06-2.07
				c2.21-0.49,4.33,0.22,5.83,2c1.23,1.46,1.31,3.22,0.54,4.96c-1.85,4.16-8.38,5.18-11.43,1.8c-0.12-0.13-0.2-0.3-0.36-0.57
				c-0.32,0.38-0.54,0.58-0.7,0.82c-3.72,5.83-10.81,8.12-17.2,5.52c-3.19-1.3-5.22-3.6-5.83-7.02c-0.13-0.72-0.33-1.09-1.1-0.96
				C123.54,246.41,116.69,243.92,113.22,238.83z"/>
		</g>
		<g>
			<path class="st3" d="M193.93,411.5c0.23,0,0.44,0.01,0.65,0.01l0-0.01l0,0c0.81-0.2,1.14-0.85,1.27-1.36
				c0.02-0.12,0.04-0.22,0.04-0.31c0.04-0.27,0.03-0.45,0.03-0.45l-0.05-4.42l-0.6,0.01c-0.45-0.02-0.84-0.44-0.85-0.95
				c-0.01-0.51,0.37-0.94,0.83-0.93l0.1-0.01c-0.48-0.27-0.82-0.85-0.84-1.54c0-0.94,0.62-1.7,1.42-1.71l0.01,0
				c-0.32-0.29-0.52-0.73-0.53-1.23c0-0.87,0.59-1.58,1.34-1.58l1.7,0c-0.09-0.15-0.16-0.33-0.15-0.52c0-0.52,0.36-0.92,0.83-0.93
				l0.8,0.01l-0.05-3.69l-1.11-0.01c-0.26,0.01-0.48-0.25-0.55-0.59c-3.3,0.18-8.5,0.43-8.73,0.1c-0.35-0.48-0.2-2.71-0.16-2.82
				c0.03-0.12,0.24-0.29,0.81-0.25c2.87,0.17,5.53,0.26,8.05,0.3c0.06-0.36,0.27-0.61,0.54-0.61l4.39,0.01
				c0.25,0.01,0.46,0.25,0.53,0.59c2.88-0.06,5.62-0.2,8.36-0.43c0.21-0.01,0.45,0.11,0.55,0.69c0.14,0.85-0.04,2.3-0.04,2.3
				s0.09,0.66-1.32,0.37l-7.5-0.31c-0.04,0.38-0.26,0.67-0.54,0.65l-1.11,0.01l0.04,3.67l0.79,0.01c0.47,0,0.85,0.42,0.85,0.93
				c0,0.2-0.05,0.38-0.13,0.53l1.69,0c0.75,0,1.37,0.71,1.38,1.59c0,0.5-0.19,0.92-0.51,1.22l0.02,0c0.79,0,1.43,0.77,1.44,1.72
				c0.01,0.69-0.31,1.26-0.79,1.54l0.1,0c0.47,0,0.85,0.42,0.86,0.95c0,0.5-0.37,0.93-0.84,0.93l-0.67-0.01l0.06,5.2
				c0.01,0.7,0.52,1.05,1.07,1.17l0,0c0.17,0.04,0.34,0.05,0.51,0.06c0.68,0.01,4.65,0.21,5.27,0.02c0.01,0,0.02,0,0.03,0
				c0.18-0.06,0.35-0.15,0.52-0.24c0.32-0.17,0.59-0.34,0.59-0.34l1.25,0.01l-0.06-5.45c-0.01-0.4,0.29-0.73,0.68-0.73l3.42,0.01
				c0.38,0,0.7,0.34,0.71,0.73l0.05,4.58c0.12-0.13,0.3-0.22,0.49-0.22l5.46,0c0.37,0,0.7,0.35,0.7,0.77l4.97,9.15
				c-1.45,0.6-5.17,0.61-5.55,0.63l-5.46-0.02c-0.19,0.01-0.37-0.08-0.5-0.22l0.05,4.59c0.01,0.41-0.31,0.72-0.69,0.72l-3.41,0
				c-0.39,0-0.7-0.32-0.7-0.73l-0.07-5.35l-1.19-0.04c-0.23-0.12-0.43-0.31-0.66-0.39c-0.17-0.05-0.36-0.11-0.54-0.14
				c-1.09-0.23-2.18-0.11-3.45-0.19c-0.79-0.06-1.55-0.06-2.33,0.03c-0.97,0.08-1.67,0.22-2.83,0.62c-2.8,0.95-5.71,0.46-7.39-0.11
				c-1.68-0.57-2.19-0.83-2.19-0.83c-0.08,0-0.18-0.02-0.43-0.06c-3.62,0.32-6.39,3.6-6.34,7.69c0,0.08,0,0.18,0.02,0.27l-5.79-0.01
				c-0.07-0.58-0.13-1.18-0.13-1.79C182.32,417.26,187.48,411.48,193.93,411.5z"/>
			<path class="st1" d="M178.51,440.95c0.14,2.79,1.05,5.09,2.64,6.64c1.39,1.36,3.22,2.06,5.15,1.98c1.93-0.08,3.67-0.93,4.94-2.41
				c1.43-1.68,2.13-4.06,1.99-6.85c-0.25-5.16-5.3-10.55-6.82-12.08l-0.04-0.04l0,0c-0.21-0.21-0.61-0.59-1.12-0.57
				c-0.46,0.02-0.8,0.36-1.06,0.68l-0.04,0.05C182.76,430.01,178.27,435.79,178.51,440.95z"/>
		</g>
		<g>
			<path class="st1" d="M189.53,479.66c0.48-0.56,0.91-1.18,1.22-1.86c1.34-2.8,1.06-6.15-0.79-9.44c-1.82-3.23-4.95-6.05-8.82-7.9
				c-1.67-0.81-3.41-1.39-5.16-1.75c0.16-0.23,0.31-0.46,0.44-0.72c1.49-3.1-0.46-7.15-4.34-8.99c-2.78-1.34-5.91-1.24-8,0.22
				c-0.8-1.17-1.9-2.12-3.22-2.76c-1.49-0.71-3.14-0.97-4.72-0.72c-1.43,0.23-2.74,0.85-3.74,1.79c-0.17-0.1-0.33-0.18-0.48-0.27
				c-5.17-2.47-10.24,0.08-13.56,4.29c-3.77,4.77,1.28,16.45,4.05,19.78c2.05,2.48,7.32,5.42,10.69,7.04
				c5.41,2.6,11.3,2.98,15.13,1.05c0.94,0.64,1.96,1.23,3,1.73c3.87,1.86,8.02,2.53,11.68,1.93c2.71-0.45,4.9-1.57,6.44-3.22
				L189.53,479.66z"/>
			<path class="st4" d="M196.46,487.71c-1.26-2.24-3.42-4.17-6.08-5.45c-1.16-0.55-2.35-0.96-3.55-1.19
				c0.11-0.16,0.21-0.33,0.29-0.52c1.02-2.12-0.32-4.91-2.99-6.19c-1.92-0.92-4.08-0.84-5.52,0.16c-0.55-0.81-1.3-1.47-2.21-1.91
				c-1.04-0.48-2.16-0.66-3.26-0.48c-0.97,0.15-1.88,0.58-2.58,1.22c-0.11-0.07-0.22-0.12-0.35-0.17c-3.55-1.72-7.73-0.39-9.34,2.95
				c-1.51,3.14-0.19,6.99,3,8.84c-0.26,1.59-0.91,4.61-0.39,6.69c0.81,3.22,4.31,4.45,6.62,5.55c3.74,1.79,18.96,1.08,21.49,0.66
				c2.57-0.43,4.49-1.73,5.42-3.65C197.93,492.28,197.74,489.98,196.46,487.71z"/>
		</g>
		<g>
			<path class="st6" d="M200.79,477.54c2.3-4.06,5.75-5.11,9.11-4.86c-0.06,2.4-0.24,4.83-0.22,7.22c-1.09,0.08-2.15,0.36-3.01,1.64
				C204.7,480.2,202.74,478.87,200.79,477.54z"/>
			<path class="st7" d="M212.49,485.48c2.02,1.27,3.97,2.73,5.97,4.06c2.02-2.69,2.98-6.16,0.79-10.29
				c-2.17,0.94-4.35,1.88-6.53,2.81C213.34,483.48,213.01,484.52,212.49,485.48z"/>
			<path class="st7" d="M208.28,494.26c0.28-2.35,0.58-4.7,0.87-7.05c-1.54-0.18-2.26-0.99-2.83-1.93c-2.12,1.11-4.36,2.05-6.52,3.1
				C201.1,491.48,203.61,494.07,208.28,494.26z"/>
			<path class="st8" d="M207.48,482.32c0.71-1.04,2.13-1.32,3.18-0.61c1.04,0.71,1.32,2.13,0.6,3.18c-0.71,1.04-2.13,1.31-3.18,0.61
				C207.04,484.79,206.77,483.37,207.48,482.32z"/>
		</g>
		<g>
			<path class="st10" d="M122.42,312.31c-0.02-0.02-10.17-1.69-10.17-1.69l1.46-7.65c0,0,7.71,1.15,8.86,2.13
				C124.89,307.13,123.85,310.57,122.42,312.31z"/>
			<path class="st9" d="M123.61,306.52c1.34,3.52,3.57,8.04,3.33,11.98c0-0.04-3.3,3.37-3.3,3.37l1.88,1.84l-7.57-1.4l-1.54-7.54
				c0,0,1.76,1.67,1.71,1.67C121.69,313.09,124.83,309.76,123.61,306.52z"/>
			<path class="st10" d="M107.28,328.41c0.02,0,7.23-7.34,7.23-7.34l5.42,5.59c0,0-5.37,5.66-6.83,6.01
				C110.09,333.41,107.88,330.58,107.28,328.41z"/>
			<path class="st9" d="M111.47,332.74c-3.65-0.92-8.64-1.71-11.72-4.16c0.04,0.03-0.86-4.63-0.86-4.63l-2.59,0.48l5.49-5.4
				l7.06,3.07c0,0-2.39,0.48-2.35,0.43C107.19,327.38,108.11,331.87,111.47,332.74z"/>
			<path class="st10" d="M100.44,307.22c-0.01,0.03,2.96,9.88,2.96,9.88l-7.51,2.06c0,0-2.38-7.43-1.99-8.88
				C94.71,307.29,98.25,306.7,100.44,307.22z"/>
			<path class="st9" d="M94.63,308.85c2.56-2.75,5.65-6.76,9.29-8.28c-0.04,0.02,4.48,1.48,4.48,1.48l0.82-2.51l2.09,7.4l-6.08,4.72
				c0,0,0.72-2.32,0.75-2.27C101.38,307.67,97,306.32,94.63,308.85z"/>
		</g>
		<g>
			<path class="st2" d="M222,436.07c2.22,0.64,4.01,1.56,5.62,2.92c2.63,2.17,4.34,5.37,4.92,8.79c0.61,3.4-0.18,7.6-1.79,10.62
				c-1.46,2.75-3.77,4.97-6.41,6.25c-0.79-1.76-1.48-3.32-1.94-4.3c0.75,2.58-0.52,5.95-2.55,7.36c-2.48,1.97-5.75,1.74-5.71,1.72
				c0.01-0.03,2.91,1.91,6.45,2.98c3.44,1.25,7.29,1.04,8.87,3.61c-0.39-0.91-1.21-2.68-2.14-4.75c3.88-2.27,7.04-5.84,8.88-10.02
				c2.03-4.52,2.5-9.69,1.34-14.33c-1.15-4.64-3.86-8.66-7.5-11.22c-2.17-1.55-4.63-2.54-7.2-2.97L222,436.07z"/>
			<path class="st2" d="M214.03,467.67c-2.22-0.63-4.02-1.58-5.62-2.92c-2.62-2.16-4.34-5.37-4.92-8.79
				c-0.61-3.42,0.17-7.61,1.78-10.62c1.48-2.76,3.77-4.98,6.41-6.25c0.81,1.76,1.49,3.32,1.95,4.31c-0.75-2.59,0.5-5.98,2.55-7.36
				c2.48-1.96,5.75-1.76,5.7-1.74c-0.01,0.03-2.9-1.89-6.46-2.99c-3.43-1.24-7.29-1.04-8.88-3.6c0.43,0.9,1.23,2.7,2.16,4.77
				c-3.88,2.27-7.04,5.83-8.89,10c-2.02,4.54-2.5,9.7-1.34,14.33c1.15,4.65,3.87,8.67,7.47,11.22c2.18,1.55,4.66,2.54,7.21,2.96
				L214.03,467.67z"/>
		</g>
		<g>
			<g>
				<path class="st3" d="M121.44,388.07c-0.02-0.06-0.04-0.12-0.07-0.19c0,0,0,0.01,0,0.01c0,0,0,0,0,0.01
					C121.4,387.96,121.42,388.01,121.44,388.07z"/>
				<path class="st1" d="M148.73,357.74c-0.12-0.05-0.26-0.07-0.51-0.14c0.29,0.31,0.51,0.52,0.71,0.76
					c0.57,0.67,0.54,1.03-0.25,1.41c-0.59,0.29-1.24,0.49-1.88,0.66c-1.4,0.38-2.74,0.86-3.73,1.99c-0.74,0.84-0.84,1.76-0.3,2.68
					c-0.05-1.36,0.8-2.08,1.86-2.61c0.4-0.2,0.84-0.33,1.26-0.48c1.02-0.38,2.07-0.71,3.06-1.16c0.68-0.31,1.22-0.86,1.16-1.69
					C150.07,358.33,149.38,358.03,148.73,357.74z"/>
				<path class="st1" d="M139.67,362.71c0.44-0.47,0.99-0.84,1.4-1.33c0.42-0.5,0.82-1.05,1.06-1.65c0.26-0.66-0.2-1.25-0.92-1.32
					c-0.3-0.03-0.61,0.02-0.91,0.04c1.23,0.69,1.25,0.84,0.25,1.76c-0.46,0.42-0.95,0.81-1.38,1.27c-0.54,0.58-0.92,1.28-0.92,2.1
					c0,0.64,0.31,1.12,0.85,1.32C138.71,364.01,139.1,363.32,139.67,362.71z"/>
				<path class="st3" d="M121.55,388.37C121.58,388.46,121.58,388.45,121.55,388.37L121.55,388.37z"/>
				<path class="st3" d="M121.44,388.07c0,0.01,0,0.01,0.01,0.02C121.44,388.08,121.44,388.07,121.44,388.07z"/>
				<path class="st3" d="M121.47,388.17c0,0.01,0.01,0.02,0.01,0.03C121.48,388.19,121.48,388.18,121.47,388.17z"/>
				<path class="st3" d="M121.48,388.2c0.01,0.03,0.02,0.05,0.03,0.07C121.5,388.24,121.49,388.22,121.48,388.2z"/>
				<path class="st3" d="M121.44,388.09c0.01,0.03,0.02,0.06,0.03,0.08C121.46,388.14,121.45,388.12,121.44,388.09z"/>
				<path class="st3" d="M121.51,388.27c0.02,0.04,0.03,0.08,0.04,0.11C121.54,388.35,121.53,388.31,121.51,388.27z"/>
			</g>
			<path class="st3" d="M148.24,387.98c-4.23-3.62-7.8-8.6-10.96-13.07c-0.67-0.97-1.46-2.12-2.3-3.36
				c-1.21-1.91-2.41-3.82-3.61-5.71c0,0,0,0,0,0c-0.55-0.87-1.1-1.74-1.65-2.6c-4.77,2.51-9.52,5-14.29,7.51
				c0.79,1.67,1.59,3.34,2.38,5.01c0,0,4.69,10.56,5.54,12.79c0.01,0.02,0.02,0.04,0.02,0.06c0.01,0.02,0.01,0.03,0.02,0.05
				c0,0,0-0.01,0-0.01c0.02,0.07,0.05,0.13,0.07,0.19c-0.02-0.05-0.04-0.11-0.06-0.18c0,0,0,0,0-0.01c0.7,1.89,1.37,3.78,1.98,5.7
				c0.51,1.63,0.79,3.34,1.18,5.05c6.69-3.51,19.59-10.31,21.61-11.37L148.24,387.98z"/>
			<path class="st1" d="M148.99,387.6c4.35-2.28,8.6-4.52,12.86-6.75c-4.94-4.7-8.03-10.12-11.68-15.74c-1.98,1.04-4.68,2.49-6,3.19
				c-0.85,0.45-1.66,0.87-2.45,1.29c1.33,2.96,2.66,5.83,3.92,8.73c1.16,2.66,2.45,6.53,3.02,9.47L148.99,387.6z"/>
		</g>
		<g>
			<g>
				<path class="st3" d="M166.24,346.3c0.01-0.04,0.02-0.09,0.02-0.14c0,0,0,0,0,0.01c0,0,0,0,0,0
					C166.26,346.22,166.25,346.27,166.24,346.3z"/>
				<path class="st3" d="M173.59,330.31c0.59-1.27,1.65-1.71,2.95-1.59c0.97,0.08,1.94,0.26,2.89,0.49c1,0.25,1.99,0.45,3.03,0.31
					c0.88-0.12,1.51-0.58,1.66-1.22c0.16-0.69-0.42-1.9-1.04-2.23c0.09,0.49,0.23,1,0.28,1.52c0.04,0.51-0.19,0.75-0.71,0.73
					c-0.63-0.03-1.28-0.06-1.89-0.21c-1.16-0.29-2.3-0.66-3.51-0.64c-1,0.01-1.96,0.17-2.77,0.83
					C173.83,328.8,173.51,329.46,173.59,330.31z"/>
				<path class="st3" d="M172.49,325.9c0.66-0.04,1.33-0.01,1.99,0c0.72,0.01,1.43-0.07,2.09-0.4c0.59-0.3,0.86-0.75,0.78-1.3
					c-0.07-0.51-0.67-1.12-1.18-1.22c0.11,0.29,0.21,0.59,0.33,0.88c0.14,0.36-0.02,0.55-0.36,0.58c-0.51,0.04-1.03,0.09-1.54,0.05
					c-1.18-0.08-2.34-0.04-3.39,0.6c-0.85,0.52-1.2,1.39-0.86,2.31C170.68,326.24,171.52,325.95,172.49,325.9z"/>
				<path class="st3" d="M166.2,346.52C166.19,346.58,166.2,346.58,166.2,346.52L166.2,346.52z"/>
				<path class="st3" d="M166.24,346.3c0,0,0,0.01,0,0.01C166.24,346.31,166.24,346.31,166.24,346.3z"/>
				<path class="st3" d="M166.23,346.38c0,0.01,0,0.01,0,0.02C166.23,346.39,166.23,346.38,166.23,346.38z"/>
				<path class="st3" d="M166.23,346.39c0,0.02-0.01,0.03-0.01,0.05C166.22,346.43,166.22,346.41,166.23,346.39z"/>
				<path class="st3" d="M166.24,346.32c0,0.02-0.01,0.04-0.01,0.06C166.23,346.36,166.24,346.34,166.24,346.32z"/>
				<path class="st3" d="M166.22,346.44c-0.01,0.03-0.01,0.06-0.01,0.08C166.21,346.5,166.21,346.48,166.22,346.44z"/>
			</g>
			<path class="st3" d="M181.96,355.34c-1.25-3.55-1.65-7.68-1.98-11.37c-0.07-0.79-0.14-1.73-0.2-2.75
				c-0.06-1.53-0.12-3.05-0.18-4.57c0,0,0,0,0,0c-0.03-0.69-0.05-1.39-0.08-2.08c-3.64-0.15-7.27-0.3-10.91-0.46
				c-0.1,1.25-0.21,2.49-0.31,3.74c0,0-0.84,7.77-1.1,9.36c0,0.01,0,0.03-0.01,0.04c0,0.01,0,0.02-0.01,0.03c0,0,0,0,0-0.01
				c-0.01,0.05-0.02,0.09-0.02,0.14c0.01-0.04,0.01-0.08,0.02-0.12c0,0,0,0,0,0c-0.23,1.34-0.48,2.68-0.78,4.01
				c-0.25,1.13-0.67,2.22-1.02,3.36c5.11,0.21,14.96,0.61,16.5,0.68L181.96,355.34z"/>
			<path class="st1" d="M182.53,355.38c3.32,0.14,6.57,0.27,9.82,0.41c-1.3-4.43-1.26-8.65-1.49-13.17
				c-1.51-0.06-3.59-0.13-4.59-0.17c-0.65-0.03-1.27-0.05-1.87-0.08c-0.22,2.18-0.42,4.31-0.66,6.44c-0.23,1.95-0.78,4.65-1.45,6.57
				L182.53,355.38z"/>
		</g>
		<path class="st3" d="M119.31,365.34c-1.12-1.74-0.84-3.41,0.32-4.94c0.87-1.15,1.85-2.24,2.88-3.24c1.09-1.06,2.12-2.14,2.76-3.55
			c0.54-1.2,0.46-2.36-0.22-3.03c-0.74-0.73-2.71-0.96-3.62-0.45c0.69,0.27,1.44,0.5,2.13,0.85c0.67,0.34,0.78,0.83,0.35,1.46
			c-0.53,0.77-1.08,1.55-1.75,2.2c-1.27,1.23-2.63,2.36-3.56,3.89c-0.77,1.26-1.32,2.59-1.14,4.11
			C117.62,363.85,118.19,364.78,119.31,365.34z"/>
		<path class="st3" d="M113.65,362.34c0.11-0.97,0.33-1.93,0.5-2.9c0.19-1.05,0.26-2.1-0.05-3.14c-0.28-0.93-0.88-1.44-1.7-1.47
			c-0.77-0.03-1.81,0.69-2.07,1.41c0.45-0.08,0.91-0.16,1.37-0.26c0.56-0.12,0.79,0.17,0.75,0.67c-0.07,0.76-0.13,1.53-0.31,2.26
			c-0.41,1.7-0.64,3.4,0.02,5.08c0.54,1.37,1.72,2.09,3.15,1.84C113.7,365.06,113.49,363.76,113.65,362.34z"/>
		<path class="st1" d="M189.2,334.83c-0.08,0.05-0.14,0.12-0.27,0.23c0.28-0.05,0.49-0.09,0.69-0.11c0.59-0.06,0.78,0.09,0.7,0.68
			c-0.06,0.44-0.2,0.88-0.34,1.3c-0.32,0.93-0.56,1.86-0.31,2.84c0.19,0.73,0.66,1.14,1.39,1.19c-0.78-0.49-0.86-1.24-0.75-2.04
			c0.04-0.3,0.14-0.59,0.21-0.89c0.18-0.72,0.39-1.43,0.51-2.16c0.09-0.5-0.02-1.01-0.5-1.29
			C190.04,334.3,189.61,334.57,189.2,334.83z"/>
		<path class="st1" d="M187.46,339.66c-0.09-0.42-0.09-0.87-0.21-1.29c-0.12-0.42-0.27-0.86-0.52-1.22
			c-0.27-0.4-0.78-0.36-1.09,0.01c-0.13,0.16-0.22,0.35-0.33,0.52c0.86-0.43,0.94-0.38,1.08,0.53c0.06,0.42,0.09,0.84,0.19,1.25
			c0.12,0.53,0.36,1,0.83,1.32c0.36,0.25,0.74,0.26,1.06,0.03C187.81,340.69,187.58,340.21,187.46,339.66z"/>
		<g>
			
				<ellipse transform="matrix(0.221 -0.9753 0.9753 0.221 58.2708 328.5715)" class="st11" cx="234.81" cy="127.81" rx="3.36" ry="2.23"/>
			<path class="st11" d="M231.05,130.14c0,0,1.58,8.26,6.42,1.87C237.47,132.01,232.59,140.3,231.05,130.14z"/>
			<path class="st11" d="M240.15,115.94c-0.42,2.3-0.15,4.73-0.24,7.09c-0.06,1.6,0.09,3.28-0.33,4.79
				c-0.85,3.01-0.83,5.93,0.01,8.89c1.29,4.56,3.93,8.32,6.97,11.85c0.91,1.05,1.79,1.08,2.64-0.09c1.5-2.06,3.01-4.1,4.52-6.16
				c3.7-5.84,5.83-12.12,5.37-19.07c-0.36-5.42-2.28-10.09-7.5-12.7C246.61,108.06,241.13,110.55,240.15,115.94z"/>
			<path class="st11" d="M240.67,166.3c1.21-3.41,2.58-6.77,3.85-10.16c0.29-0.78,0.78-1.69,0.62-2.42
				c-1.32-6.13-3.32-11.93-8.85-15.69c-2.97-2.02-6.2-1.33-8.26,1.61c-2.26,3.23-2.06,6.67-0.98,10.2c0.23,0.75,1.79,5.17,2.05,5.91
				c-0.63,0-2.17-3.85-2.29-4.09c-2.03-4.25-2.17-8.55-0.58-13.02c0.97-2.73,1.72-5.57,2.3-8.41c0.62-3.03,1.83-5.63,3.8-8.05
				c3.28-4.02,6.3-8.26,9.66-12.72c-5.92,0.2-15.13,5.1-18.66,9.36c-4.61,5.56-6.7,12-5.56,18.98c1.69,10.41,4.05,20.72,6.2,31.06
				c0.63,3.04,2.91,4.49,5.76,4.95C234.88,174.63,238.69,171.9,240.67,166.3z"/>
			<path class="st11" d="M237.81,179.99c0.01,0,0.02,0,0.04,0c0.82,0.09,1.66,0.08,2.52,0c4.98-0.78,7.54-1.45,8.74-1.83
				c15.14-5.42,19.22-21.87,19.96-34.78c0.2-4.36,0.06-8.62,0.06-8.62c0.01-2.74-0.17-5.43-0.71-8.08
				c-0.02-0.16-0.04-0.25-0.04-0.25l-0.01,0.02c-0.24-1.11-0.52-2.22-0.89-3.32c-1.91-5.58-5.69-9.51-10.82-12.31
				c5.85,7.38,5.96,15.51,3.08,23.88c-1.14,3.33-2.54,6.78-4.65,9.53c-5.83,7.57-10.21,15.77-13.23,24.83
				c-1.69,5.06-6.38,7.63-11.72,7.12c-0.83-0.08-1.65-0.16-2.48-0.24C230.93,177.76,234.19,179.6,237.81,179.99L237.81,179.99z"/>
		</g>
		<g>
			
				<ellipse transform="matrix(0.2252 -0.9743 0.9743 0.2252 8.1061 283.8882)" class="st11" cx="182.54" cy="136.85" rx="2.46" ry="1.63"/>
			<path class="st11" d="M179.78,138.54c0,0,1.13,6.05,4.7,1.39C184.47,139.93,180.88,145.99,179.78,138.54z"/>
			<path class="st11" d="M186.49,128.17c-0.31,1.69-0.13,3.46-0.2,5.19c-0.05,1.17,0.06,2.4-0.26,3.51
				c-0.63,2.2-0.63,4.34-0.02,6.51c0.93,3.34,2.85,6.11,5.07,8.7c0.66,0.77,1.31,0.8,1.94-0.06c1.1-1.5,2.22-3,3.33-4.49
				c2.73-4.26,4.31-8.86,3.99-13.95c-0.25-3.97-1.64-7.4-5.46-9.33C191.24,122.42,187.22,124.23,186.49,128.17z"/>
			<path class="st11" d="M186.71,165.05c0.9-2.5,1.91-4.95,2.85-7.43c0.22-0.57,0.57-1.23,0.46-1.77
				c-0.95-4.49-2.39-8.75-6.43-11.52c-2.17-1.49-4.54-1-6.05,1.15c-1.66,2.36-1.53,4.87-0.75,7.46c0.16,0.55,1.29,3.79,1.48,4.34
				c-0.46,0-1.58-2.83-1.66-3c-1.47-3.12-1.56-6.27-0.38-9.53c0.72-2,1.28-4.07,1.71-6.15c0.47-2.21,1.36-4.12,2.81-5.88
				c2.42-2.93,4.64-6.03,7.12-9.29c-4.33,0.13-11.1,3.69-13.69,6.79c-3.4,4.06-4.94,8.77-4.13,13.88c1.21,7.63,2.9,15.19,4.44,22.76
				c0.45,2.23,2.12,3.3,4.21,3.64C182.44,171.13,185.24,169.14,186.71,165.05z"/>
			<path class="st11" d="M184.57,175.07c0.01,0,0.02,0,0.03,0c0.6,0.07,1.22,0.07,1.85,0.01c3.65-0.55,5.52-1.04,6.41-1.31
				c11.11-3.92,14.14-15.95,14.73-25.41c0.16-3.19,0.07-6.31,0.07-6.31c0.02-2.01-0.11-3.98-0.5-5.92
				c-0.02-0.12-0.03-0.18-0.03-0.18l-0.01,0.02c-0.17-0.82-0.37-1.63-0.64-2.43c-1.38-4.09-4.14-6.98-7.88-9.05
				c4.26,5.42,4.31,11.38,2.18,17.49c-0.85,2.43-1.88,4.95-3.44,6.96c-4.29,5.52-7.53,11.52-9.76,18.14
				c-1.25,3.7-4.7,5.56-8.61,5.17c-0.61-0.06-1.21-0.12-1.82-0.18C179.54,173.41,181.92,174.77,184.57,175.07L184.57,175.07z"/>
		</g>
		<g>
			
				<ellipse transform="matrix(0.1633 -0.9866 0.9866 0.1633 -35.0341 270.501)" class="st11" cx="141.95" cy="155.9" rx="1.94" ry="1.29"/>
			<path class="st11" d="M139.86,157.38c0,0,1.19,4.71,3.77,0.86C143.63,158.24,141.1,163.19,139.86,157.38z"/>
			<path class="st11" d="M144.63,148.87c-0.16,1.34,0.07,2.73,0.1,4.1c0.02,0.93,0.16,1.89-0.03,2.78
				c-0.39,1.77-0.28,3.45,0.31,5.13c0.9,2.59,2.55,4.67,4.43,6.61c0.56,0.58,1.07,0.56,1.52-0.14c0.8-1.24,1.6-2.47,2.4-3.71
				c1.94-3.5,2.96-7.2,2.45-11.2c-0.39-3.12-1.66-5.75-4.77-7.08C148.09,144.1,145.01,145.73,144.63,148.87z"/>
			<path class="st11" d="M146.65,177.93c0.58-2.01,1.26-4,1.88-6c0.14-0.46,0.39-1,0.27-1.42c-0.97-3.49-2.32-6.78-5.64-8.76
				c-1.78-1.07-3.63-0.56-4.71,1.21c-1.19,1.94-0.96,3.92-0.22,5.92c0.16,0.42,1.21,2.93,1.38,3.34c-0.36,0.02-1.39-2.15-1.46-2.28
				c-1.32-2.39-1.54-4.87-0.78-7.5c0.47-1.61,0.8-3.27,1.04-4.94c0.26-1.77,0.86-3.31,1.92-4.78c1.76-2.43,3.35-4.98,5.15-7.68
				c-3.41,0.32-8.56,3.46-10.46,6.04c-2.47,3.37-3.46,7.16-2.57,11.15c1.33,5.96,3.05,11.83,4.64,17.72
				c0.47,1.73,1.83,2.49,3.5,2.66C143.58,182.94,145.69,181.23,146.65,177.93z"/>
			<path class="st11" d="M145.46,185.94c0.01,0,0.01,0,0.02,0c0.48,0.02,0.96-0.01,1.46-0.08c2.85-0.62,4.3-1.09,4.99-1.36
				c8.56-3.64,10.36-13.28,10.34-20.76c-0.03-2.53-0.26-4.98-0.26-4.98c-0.09-1.58-0.28-3.13-0.69-4.64
				c-0.02-0.09-0.03-0.14-0.03-0.14l-0.01,0.01c-0.17-0.63-0.37-1.26-0.63-1.89c-1.29-3.16-3.61-5.3-6.67-6.74
				c3.63,4.06,3.97,8.75,2.59,13.68c-0.55,1.96-1.23,4-2.36,5.66c-3.11,4.57-5.36,9.46-6.79,14.79c-0.8,2.98-3.43,4.62-6.53,4.51
				c-0.48-0.02-0.96-0.04-1.44-0.05C141.41,184.88,143.35,185.83,145.46,185.94L145.46,185.94z"/>
		</g>
		<g>
			
				<ellipse transform="matrix(0.0368 -0.9993 0.9993 0.0368 -69.5331 283.2904)" class="st11" cx="112.19" cy="177.72" rx="1.48" ry="0.96"/>
			<path class="st11" d="M110.77,178.98c0,0,1.25,3.51,2.84,0.41C113.61,179.38,112.14,183.33,110.77,178.98z"/>
			<path class="st11" d="M113.6,172.18c-0.01,1.04,0.27,2.08,0.4,3.12c0.09,0.71,0.27,1.43,0.2,2.12c-0.14,1.37,0.07,2.65,0.63,3.89
				c0.87,1.91,2.25,3.39,3.78,4.74c0.46,0.4,0.83,0.36,1.11-0.21c0.49-1,0.98-1.99,1.47-2.99c1.15-2.79,1.6-5.68,0.91-8.69
				c-0.54-2.35-1.68-4.27-4.07-5.08C115.77,168.31,113.63,169.75,113.6,172.18z"/>
			<path class="st11" d="M117.39,194.19c0.27-1.57,0.61-3.13,0.9-4.7c0.07-0.36,0.21-0.79,0.09-1.1c-0.99-2.6-2.25-5.01-4.84-6.3
				c-1.4-0.69-2.71-0.18-3.37,1.23c-0.72,1.56-0.4,3.05,0.31,4.53c0.15,0.31,1.12,2.15,1.28,2.46c-0.27,0.04-1.19-1.55-1.25-1.64
				c-1.16-1.73-1.52-3.61-1.17-5.66c0.22-1.26,0.33-2.55,0.38-3.83c0.05-1.36,0.37-2.58,1.03-3.77c1.1-1.97,2.07-4.02,3.17-6.19
				c-2.48,0.47-6.02,3.21-7.21,5.3c-1.55,2.73-1.97,5.69-1,8.67c1.45,4.45,3.18,8.81,4.82,13.2c0.48,1.29,1.55,1.78,2.78,1.8
				C115.54,198.21,116.95,196.77,117.39,194.19z"/>
			<path class="st11" d="M117.15,200.37c0.01,0,0.01,0,0.02,0c0.35-0.02,0.71-0.07,1.06-0.16c2.04-0.66,3.08-1.12,3.56-1.36
				c6-3.35,6.56-10.81,5.96-16.51c-0.23-1.92-0.59-3.78-0.59-3.78c-0.19-1.2-0.46-2.37-0.87-3.49c-0.02-0.07-0.03-0.11-0.03-0.11
				l0,0.01c-0.18-0.47-0.38-0.94-0.61-1.4c-1.2-2.32-3.07-3.8-5.44-4.69c2.99,2.85,3.61,6.41,2.99,10.26
				c-0.25,1.53-0.59,3.13-1.29,4.47c-1.92,3.69-3.19,7.56-3.82,11.72c-0.35,2.33-2.15,3.75-4.44,3.87
				c-0.35,0.02-0.71,0.04-1.06,0.05C114.09,199.83,115.59,200.43,117.15,200.37L117.15,200.37z"/>
		</g>
		<g>
			
				<ellipse transform="matrix(0.0368 -0.9993 0.9993 0.0368 -114.2237 281.4051)" class="st11" cx="88.87" cy="199.96" rx="1.22" ry="0.79"/>
			<path class="st11" d="M87.69,201c0,0,1.03,2.9,2.35,0.34C90.04,201.33,88.82,204.59,87.69,201z"/>
			<path class="st11" d="M90.03,195.38c-0.01,0.85,0.22,1.72,0.33,2.58c0.07,0.58,0.22,1.18,0.16,1.75
				c-0.12,1.13,0.06,2.19,0.52,3.21c0.72,1.58,1.86,2.8,3.12,3.91c0.38,0.33,0.69,0.29,0.92-0.17c0.4-0.82,0.81-1.64,1.21-2.47
				c0.95-2.31,1.32-4.69,0.75-7.18c-0.44-1.94-1.38-3.53-3.36-4.2C91.82,192.19,90.06,193.38,90.03,195.38z"/>
			<path class="st11" d="M93.16,213.56c0.22-1.3,0.5-2.58,0.75-3.88c0.06-0.3,0.17-0.65,0.07-0.91c-0.82-2.15-1.85-4.14-4-5.2
				c-1.15-0.57-2.24-0.15-2.78,1.02c-0.6,1.29-0.33,2.52,0.25,3.74c0.12,0.26,0.92,1.78,1.06,2.03c-0.22,0.03-0.98-1.28-1.04-1.36
				c-0.96-1.43-1.26-2.98-0.96-4.68c0.18-1.04,0.27-2.1,0.31-3.16c0.04-1.13,0.31-2.13,0.85-3.11c0.91-1.63,1.71-3.32,2.62-5.11
				c-2.05,0.39-4.97,2.65-5.95,4.37c-1.28,2.26-1.63,4.7-0.83,7.16c1.2,3.68,2.63,7.28,3.98,10.9c0.4,1.07,1.28,1.47,2.3,1.48
				C91.63,216.88,92.8,215.69,93.16,213.56z"/>
			<path class="st11" d="M92.97,218.67c0,0,0.01,0,0.01,0c0.29-0.01,0.58-0.06,0.88-0.13c1.69-0.55,2.54-0.92,2.94-1.13
				c4.96-2.76,5.42-8.93,4.92-13.64c-0.19-1.59-0.48-3.12-0.48-3.12c-0.16-0.99-0.38-1.95-0.72-2.88c-0.02-0.06-0.03-0.09-0.03-0.09
				l0,0.01c-0.15-0.39-0.31-0.78-0.51-1.15c-0.99-1.92-2.54-3.14-4.49-3.88c2.47,2.36,2.98,5.29,2.47,8.47
				c-0.2,1.26-0.49,2.59-1.06,3.69c-1.59,3.05-2.63,6.25-3.15,9.68c-0.29,1.92-1.78,3.1-3.67,3.2c-0.29,0.02-0.59,0.03-0.88,0.05
				C90.44,218.22,91.68,218.72,92.97,218.67L92.97,218.67z"/>
		</g>
	</g>
</g>
<g id="Layer_2">
</g>
</svg>
