<svg xmlns="http://www.w3.org/2000/svg" xmlns:xlink="http://www.w3.org/1999/xlink" width="100" height="100" viewBox="0 0 100 100"><g><g transform="translate(50 50) scale(0.69 0.69) rotate(0) translate(-50 -50)" style="fill:#000000"><svg fill="#000000" xmlns="http://www.w3.org/2000/svg" xmlns:xlink="http://www.w3.org/1999/xlink" version="1.1" x="0px" y="0px" viewBox="0 0 100 100" enable-background="new 0 0 100 100" xml:space="preserve"><path d="M20.661,12.524v74.953c0,2.387,1.937,4.322,4.322,4.322H75.02c2.389,0,4.32-1.936,4.32-4.322V12.524  c0-2.387-1.932-4.322-4.32-4.322H24.983C22.597,8.202,20.661,10.137,20.661,12.524 M34,84.402h-4.478  c-0.737,0-1.334-0.598-1.334-1.336V78.59c0-0.736,0.597-1.33,1.334-1.33H34c0.731,0,1.329,0.594,1.329,1.33v4.477  C35.33,83.805,34.732,84.402,34,84.402 M34,72.914h-4.478c-0.737,0-1.334-0.596-1.334-1.334v-4.477c0-0.736,0.597-1.33,1.334-1.33  H34c0.731,0,1.329,0.594,1.329,1.33v4.477C35.33,72.318,34.732,72.914,34,72.914 M34,61.428h-4.478  c-0.737,0-1.334-0.598-1.334-1.334v-4.473c0-0.738,0.597-1.336,1.334-1.336H34c0.731,0,1.329,0.598,1.329,1.336v4.473  C35.33,60.83,34.732,61.428,34,61.428 M34,49.945h-4.478c-0.737,0-1.334-0.598-1.334-1.335v-4.474c0-0.736,0.597-1.333,1.334-1.333  H34c0.731,0,1.329,0.597,1.329,1.333v4.474C35.33,49.347,34.732,49.945,34,49.945 M45.097,84.402H40.62  c-0.736,0-1.329-0.598-1.329-1.336V78.59c0-0.736,0.593-1.33,1.329-1.33h4.478c0.736,0,1.334,0.594,1.334,1.33v4.477  C46.431,83.805,45.833,84.402,45.097,84.402 M45.097,72.914H40.62c-0.736,0-1.329-0.596-1.329-1.334v-4.477  c0-0.736,0.593-1.33,1.329-1.33h4.478c0.736,0,1.334,0.594,1.334,1.33v4.477C46.431,72.318,45.833,72.914,45.097,72.914   M45.097,61.428H40.62c-0.736,0-1.329-0.598-1.329-1.334v-4.473c0-0.738,0.593-1.336,1.329-1.336h4.478  c0.736,0,1.334,0.598,1.334,1.336v4.473C46.431,60.83,45.833,61.428,45.097,61.428 M45.097,49.945H40.62  c-0.736,0-1.329-0.598-1.329-1.335v-4.474c0-0.736,0.593-1.333,1.329-1.333h4.478c0.736,0,1.334,0.597,1.334,1.333v4.474  C46.431,49.347,45.833,49.945,45.097,49.945 M56.199,84.402h-4.479c-0.737,0-1.334-0.598-1.334-1.336V78.59  c0-0.736,0.598-1.33,1.334-1.33h4.479c0.736,0,1.328,0.594,1.328,1.33v4.477C57.527,83.805,56.936,84.402,56.199,84.402   M56.199,72.914h-4.479c-0.737,0-1.334-0.596-1.334-1.334v-4.477c0-0.736,0.598-1.33,1.334-1.33h4.479  c0.736,0,1.328,0.594,1.328,1.33v4.477C57.527,72.318,56.936,72.914,56.199,72.914 M56.199,61.428h-4.479  c-0.737,0-1.334-0.598-1.334-1.334v-4.473c0-0.738,0.598-1.336,1.334-1.336h4.479c0.736,0,1.328,0.598,1.328,1.336v4.473  C57.527,60.83,56.936,61.428,56.199,61.428 M56.199,49.945h-4.479c-0.737,0-1.334-0.598-1.334-1.335v-4.474  c0-0.736,0.598-1.333,1.334-1.333h4.479c0.736,0,1.328,0.597,1.328,1.333v4.474C57.527,49.347,56.936,49.945,56.199,49.945   M70.48,84.402h-4.477c-0.736,0-1.334-0.598-1.334-1.336V67.104c0-0.736,0.598-1.33,1.334-1.33h4.477  c0.738,0,1.334,0.594,1.334,1.33v15.963C71.814,83.805,71.219,84.402,70.48,84.402 M70.48,61.428h-4.477  c-0.736,0-1.334-0.598-1.334-1.334v-4.473c0-0.738,0.598-1.336,1.334-1.336h4.477c0.738,0,1.334,0.598,1.334,1.336v4.473  C71.814,60.83,71.219,61.428,70.48,61.428 M70.48,49.945h-4.477c-0.736,0-1.334-0.598-1.334-1.335v-4.474  c0-0.736,0.598-1.333,1.334-1.333h4.477c0.738,0,1.334,0.597,1.334,1.333v4.474C71.814,49.347,71.219,49.945,70.48,49.945   M70.91,31.042H29.093c-0.502,0-0.904-0.403-0.904-0.905V16.502c0-0.498,0.402-0.904,0.904-0.904H70.91  c0.498,0,0.904,0.406,0.904,0.904v13.634C71.814,30.638,71.408,31.042,70.91,31.042"></path></svg></g></g></svg>